<svg width="496" height="370" viewBox="0 0 496 370" fill="none" xmlns="http://www.w3.org/2000/svg">
<path d="M38.4038 7.04932L38.1138 8.54346H39.3574V9.11035H38.0083L37.6392 11H37.0371L37.4062 9.11035H36.0747L35.7144 11H35.1167L35.4683 9.11035H34.3169V8.54346H35.5781L35.877 7.04932H34.6597V6.49121H35.9736L36.334 4.5752H36.9448L36.5845 6.49121H37.9248L38.2939 4.5752H38.8828L38.5137 6.49121H39.6738V7.04932H38.4038ZM36.1802 8.54346H37.5117L37.8018 7.04932H36.4702L36.1802 8.54346Z" fill="#6B6E74"/>
<path d="M37 15.5C41.1421 15.5 44.5 12.1421 44.5 8C44.5 3.85786 41.1421 0.5 37 0.5C32.8579 0.5 29.5 3.85786 29.5 8C29.5 12.1421 32.8579 15.5 37 15.5Z" stroke="#6B6E74"/>
<path d="M2.95947 12H2.2124V6.23877H0.177734V5.5752H4.99414V6.23877H2.95947V12ZM7.89014 12.0879C7.17822 12.0879 6.61572 11.8711 6.20264 11.4375C5.79248 11.0039 5.5874 10.4019 5.5874 9.63135C5.5874 8.85498 5.77783 8.23828 6.15869 7.78125C6.54248 7.32422 7.05664 7.0957 7.70117 7.0957C8.30469 7.0957 8.78223 7.29492 9.13379 7.69336C9.48535 8.08887 9.66113 8.61182 9.66113 9.26221V9.72363H6.34326C6.35791 10.2891 6.5 10.7183 6.76953 11.0112C7.04199 11.3042 7.42432 11.4507 7.9165 11.4507C8.43506 11.4507 8.94775 11.3423 9.45459 11.1255V11.7759C9.19678 11.8872 8.95215 11.9663 8.7207 12.0132C8.49219 12.063 8.21533 12.0879 7.89014 12.0879ZM7.69238 7.70654C7.30566 7.70654 6.99658 7.83252 6.76514 8.08447C6.53662 8.33643 6.40186 8.68506 6.36084 9.13037H8.87891C8.87891 8.67041 8.77637 8.31885 8.57129 8.07568C8.36621 7.82959 8.07324 7.70654 7.69238 7.70654ZM13.8711 12L13.7261 11.3145H13.6909C13.4507 11.6162 13.2104 11.8213 12.9702 11.9297C12.7329 12.0352 12.4355 12.0879 12.0781 12.0879C11.6006 12.0879 11.2256 11.9648 10.9531 11.7188C10.6836 11.4727 10.5488 11.1226 10.5488 10.6685C10.5488 9.6958 11.3267 9.18604 12.8823 9.13916L13.6997 9.11279V8.81396C13.6997 8.43604 13.6177 8.15771 13.4536 7.979C13.2925 7.79736 13.0332 7.70654 12.6758 7.70654C12.2744 7.70654 11.8203 7.82959 11.3135 8.07568L11.0894 7.51758C11.3267 7.38867 11.5859 7.2876 11.8672 7.21436C12.1514 7.14111 12.4355 7.10449 12.7197 7.10449C13.2939 7.10449 13.7188 7.23193 13.9941 7.48682C14.2725 7.7417 14.4116 8.15039 14.4116 8.71289V12H13.8711ZM12.2231 11.4858C12.6772 11.4858 13.0332 11.3613 13.291 11.1123C13.5518 10.8633 13.6821 10.5146 13.6821 10.0664V9.63135L12.9526 9.66211C12.3726 9.68262 11.9536 9.77344 11.6958 9.93457C11.4409 10.0928 11.3135 10.3403 11.3135 10.6772C11.3135 10.9409 11.3926 11.1416 11.5508 11.2793C11.7119 11.417 11.936 11.4858 12.2231 11.4858ZM22.0581 12V8.8667C22.0581 8.48291 21.9761 8.1958 21.812 8.00537C21.6479 7.81201 21.3931 7.71533 21.0474 7.71533C20.5933 7.71533 20.2578 7.8457 20.041 8.10645C19.8242 8.36719 19.7158 8.76855 19.7158 9.31055V12H18.9863V8.8667C18.9863 8.48291 18.9043 8.1958 18.7402 8.00537C18.5762 7.81201 18.3198 7.71533 17.9712 7.71533C17.5142 7.71533 17.1787 7.85303 16.9648 8.12842C16.7539 8.40088 16.6484 8.84912 16.6484 9.47314V12H15.9189V7.18359H16.5122L16.6309 7.84277H16.666C16.8037 7.6084 16.9971 7.42529 17.2461 7.29346C17.498 7.16162 17.7793 7.0957 18.0898 7.0957C18.8428 7.0957 19.335 7.36816 19.5664 7.91309H19.6016C19.7451 7.66113 19.9531 7.46191 20.2256 7.31543C20.498 7.16895 20.8086 7.0957 21.1572 7.0957C21.7021 7.0957 22.1094 7.23633 22.3789 7.51758C22.6514 7.7959 22.7876 8.24268 22.7876 8.85791V12H22.0581Z" fill="#556F99"/>
<path d="M491.5 28.5H260.5C258.291 28.5 256.5 30.2909 256.5 32.5V111.5C256.5 113.709 258.291 115.5 260.5 115.5H491.5C493.709 115.5 495.5 113.709 495.5 111.5V32.5C495.5 30.2909 493.709 28.5 491.5 28.5Z" stroke="#6B6E74"/>
<path d="M438 52H352C351.448 52 351 52.4477 351 53C351 53.5523 351.448 54 352 54H438C438.552 54 439 53.5523 439 53C439 52.4477 438.552 52 438 52Z" fill="#6B6E74"/>
<path d="M382.5 62H351.5C351.224 62 351 62.2239 351 62.5C351 62.7761 351.224 63 351.5 63H382.5C382.776 63 383 62.7761 383 62.5C383 62.2239 382.776 62 382.5 62Z" fill="#6B6E74"/>
<path d="M308 104.5C325.673 104.5 340 90.1731 340 72.5C340 54.8269 325.673 40.5 308 40.5C290.327 40.5 276 54.8269 276 72.5C276 90.1731 290.327 104.5 308 104.5Z" fill="#E2E7EF"/>
<path d="M304 104C321.397 104 335.5 89.897 335.5 72.5C335.5 55.103 321.397 41 304 41C286.603 41 272.5 55.103 272.5 72.5C272.5 89.897 286.603 104 304 104Z" stroke="#6B6E74"/>
<path d="M297.788 82.1091C297.849 82.1315 297.908 82.1599 297.964 82.1937L298.045 82.2486L303.321 86.2009C303.411 86.2686 303.475 86.3643 303.504 86.4718L303.519 86.5544L304.004 91.7342L304.831 90.64L304.832 87.4917C304.832 87.3998 304.857 87.3102 304.904 87.2325L304.958 87.1592L309.036 82.5809C309.403 82.1684 310.035 82.1318 310.448 82.4991C310.558 82.5977 310.645 82.7193 310.703 82.8549L310.74 82.9591L311.73 86.2644C311.792 86.471 311.785 86.6908 311.713 86.8914L311.661 87.0093L308.84 92.4852C308.587 92.9762 307.984 93.1691 307.493 92.9162C307.197 92.7637 306.999 92.4757 306.959 92.1507L306.951 92.0272V90.2923C306.951 90.0161 307.175 89.7923 307.451 89.7923C307.697 89.7923 307.901 89.9692 307.943 90.2024L307.951 90.2923V92.0272L310.772 86.5513L309.783 83.2459L305.831 87.682L305.832 90.808C305.832 90.8897 305.812 90.9697 305.774 91.0412L305.73 91.1097L304.801 92.3377C304.632 92.5614 304.376 92.7037 304.097 92.7299C303.586 92.7777 303.13 92.4327 303.026 91.9429L303.008 91.8275L302.543 86.868L297.446 83.0489L296.494 85.6638C296.424 85.8565 296.297 86.022 296.131 86.1391L296.027 86.2034L285.162 92.0235L283.45 95.5416C283.329 95.7899 283.03 95.8932 282.781 95.7723C282.561 95.6649 282.454 95.4165 282.518 95.1882L282.551 95.1039L284.263 91.5858C284.337 91.4345 284.447 91.3048 284.583 91.2081L284.69 91.142L295.555 85.3219L296.506 82.707C296.695 82.188 297.269 81.9203 297.788 82.1091ZM312.779 86.3362L312.863 86.3699L321.925 90.9947C322.543 91.31 323.078 91.7633 323.49 92.3181L323.639 92.5308L325.294 95.0481C325.446 95.2788 325.382 95.5889 325.151 95.7406C324.946 95.8754 324.678 95.8397 324.515 95.6681L324.459 95.5974L322.804 93.0802C322.512 92.6364 322.124 92.2657 321.669 91.9951L321.47 91.8854L312.408 87.2606C312.162 87.135 312.065 86.8339 312.19 86.5879C312.302 86.3693 312.552 86.2678 312.779 86.3362ZM297.555 86.5161L297.603 86.593L300.195 91.82L300.196 89.4814C300.196 89.4191 300.207 89.3577 300.23 89.3001L300.271 89.2171L301.489 87.261C301.635 87.0266 301.943 86.9549 302.178 87.1009C302.386 87.2306 302.466 87.4887 302.379 87.709L302.338 87.7896L301.195 89.624L301.196 93.9539C301.196 94.4513 300.564 94.6286 300.294 94.253L300.248 94.1761L296.707 87.0374C296.584 86.79 296.685 86.49 296.932 86.3673C297.152 86.2582 297.414 86.3259 297.555 86.5161ZM301.677 57.4651L302.061 58.2366C303.644 61.3659 305.026 63.4292 306.18 64.4111C307.308 65.3708 309.234 66.1544 311.952 66.7405C312.597 66.8795 313.069 67.4208 313.129 68.0669L313.136 68.2068V69.0027C313.136 69.0724 313.157 69.1404 313.197 69.1975C313.289 69.3292 313.458 69.3754 313.601 69.3182L313.67 69.2809L314.137 68.9542C314.194 68.9137 314.255 68.8774 314.318 68.8454C315.013 68.4924 315.854 68.7328 316.263 69.3782L316.334 69.5039L316.589 70.0045C317.113 71.0379 317.151 72.2469 316.7 73.3059L316.603 73.5156L316.567 73.5873C316.062 74.6024 315.194 75.3866 314.14 75.788L313.843 75.89L313.672 76.1171C310.627 80.1064 307.522 82.1841 304.349 82.2996L304.069 82.3047C300.707 82.3047 297.369 80.1061 294.041 75.7666C293.873 75.5474 293.914 75.2336 294.133 75.0655C294.352 74.8975 294.666 74.9389 294.834 75.158C297.992 79.275 301.074 81.3047 304.069 81.3047C307.061 81.3047 310.087 79.278 313.137 75.1645C313.184 75.1014 313.245 75.0506 313.314 75.0156L313.386 74.9861L313.606 74.9158C314.437 74.6497 315.135 74.0841 315.569 73.3333L315.707 73.0701C316.086 72.3099 316.112 71.4257 315.786 70.649L315.697 70.4572L315.443 69.9566C315.318 69.7103 315.017 69.6121 314.771 69.7371L314.71 69.7733L314.244 70.1C313.638 70.5244 312.802 70.3771 312.378 69.7711C312.252 69.5909 312.172 69.3832 312.146 69.1665L312.136 69.0027V68.2068C312.136 67.9713 311.971 67.7677 311.741 67.718C308.877 67.1003 306.809 66.259 305.532 65.1728C304.153 63.9996 302.58 61.5834 300.779 57.9047C300.657 57.6567 300.76 57.3572 301.008 57.2358C301.256 57.1144 301.556 57.217 301.677 57.4651ZM306.75 75.7545C306.918 75.974 306.875 76.2878 306.656 76.4553C305.455 77.3715 304.531 77.8385 303.818 77.8385C303.107 77.8385 302.173 77.3728 300.951 76.4581C300.729 76.2927 300.684 75.9793 300.85 75.7582C301.015 75.5371 301.329 75.492 301.55 75.6575C302.609 76.4504 303.388 76.8385 303.818 76.8385C304.247 76.8385 305.012 76.4518 306.049 75.6603C306.269 75.4928 306.583 75.535 306.75 75.7545ZM295.553 53.684C295.707 53.9134 295.645 54.224 295.416 54.3777C293.457 55.6903 292.276 56.7425 291.892 57.4791L291.581 58.0821C290.806 59.6331 290.546 60.995 290.909 63.0625C291.247 64.9892 291.732 66.8693 292.363 68.7031C292.876 68.4441 293.504 68.4465 294.03 68.7626C294.128 68.8211 294.219 68.8891 294.303 68.9655C294.369 69.0254 294.471 69.0206 294.531 68.9547C294.549 68.9349 294.562 68.9111 294.568 68.8856L294.573 68.8462V68.6103C294.573 67.4552 294.936 66.3317 295.609 65.3978L295.769 65.1857C296.222 64.6169 296.553 64.0596 296.764 63.5147C297.118 62.6011 297.319 61.2542 297.357 59.4833C297.362 59.2072 297.591 58.9882 297.867 58.994C298.143 59 298.362 59.2285 298.356 59.5046C298.316 61.3818 298.1 62.8358 297.696 63.8761C297.447 64.5203 297.064 65.1641 296.552 65.8083C295.971 66.5384 295.632 67.4292 295.58 68.3566L295.573 68.6103V68.8462C295.573 69.1352 295.465 69.4137 295.271 69.6275C294.87 70.0681 294.208 70.1296 293.736 69.7907L293.63 69.7053C293.595 69.6732 293.557 69.6446 293.516 69.62C293.203 69.4325 292.806 69.5074 292.582 69.7808L292.52 69.8687L292.391 70.0841C291.989 70.7536 292.02 71.5912 292.456 72.2263L292.556 72.3592L293.974 74.0934C294.149 74.3071 294.118 74.6221 293.904 74.797C293.714 74.9524 293.444 74.9447 293.264 74.791L293.2 74.7265L291.782 72.9924C291.029 72.0723 290.899 70.7995 291.432 69.7519L291.533 69.5695L291.609 69.4433C291.562 69.3938 291.524 69.334 291.5 69.2657C290.811 67.3071 290.285 65.2969 289.924 63.2353C289.542 61.0608 289.791 59.5337 290.554 57.9072L290.686 57.6351C290.769 57.4689 290.851 57.3111 291.005 57.0174C291.49 56.0869 292.768 54.9484 294.859 53.5469C295.089 53.3932 295.399 53.4546 295.553 53.684ZM304.233 71.23L304.271 71.3116L304.761 72.6546C304.826 72.8319 304.784 73.0275 304.66 73.1631L304.592 73.2256L303.916 73.7337C303.695 73.8997 303.382 73.8553 303.216 73.6346C303.068 73.4384 303.087 73.1689 303.248 72.9949L303.315 72.9344L303.694 72.649L303.332 71.6543C303.247 71.4237 303.344 71.1713 303.548 71.0516L303.63 71.0132C303.861 70.9291 304.113 71.0253 304.233 71.23ZM314.762 70.8013C314.995 70.8769 315.135 71.108 315.104 71.343L315.084 71.431L314.418 73.488C314.333 73.7507 314.051 73.8948 313.788 73.8098C313.555 73.7342 313.415 73.5031 313.447 73.2681L313.467 73.1801L314.132 71.1231C314.217 70.8604 314.499 70.7163 314.762 70.8013ZM307.996 68.6088C308.548 68.6088 308.996 69.0565 308.996 69.6088C308.996 70.1611 308.548 70.6088 307.996 70.6088C307.444 70.6088 306.996 70.1611 306.996 69.6088C306.996 69.0565 307.444 68.6088 307.996 68.6088ZM299.996 68.6088C300.548 68.6088 300.996 69.0565 300.996 69.6088C300.996 70.1611 300.548 70.6088 299.996 70.6088C299.444 70.6088 298.996 70.1611 298.996 69.6088C298.996 69.0565 299.444 68.6088 299.996 68.6088ZM308.168 50.6019C312.794 52.5062 315.71 56.0292 316.513 59.4035C317.337 62.8638 317.479 65.5861 316.921 67.5832C316.847 67.8491 316.571 68.0045 316.305 67.9303C316.039 67.856 315.884 67.5802 315.958 67.3142C316.462 65.5092 316.329 62.9452 315.541 59.6351C314.81 56.5681 312.11 53.3062 307.787 51.5266C304.516 50.1802 301.209 50.2595 299.254 51.0657C298.522 51.3677 297.528 52.1145 296.297 53.3034C296.098 53.4952 295.781 53.4896 295.59 53.2909C295.398 53.0923 295.403 52.7757 295.602 52.5839C296.917 51.315 297.999 50.5017 298.873 50.1413C301.065 49.2375 304.645 49.1516 308.168 50.6019ZM301.388 64.4228C301.653 64.4987 301.807 64.7755 301.731 65.041C301.655 65.3065 301.378 65.4602 301.113 65.3842C300.252 65.138 299.638 65.0692 299.304 65.1555C298.998 65.2348 298.644 65.5312 298.265 66.0688C298.106 66.2945 297.794 66.3485 297.568 66.1894C297.343 66.0302 297.289 65.7183 297.448 65.4926C297.951 64.7791 298.479 64.3359 299.054 64.1873C299.602 64.0456 300.369 64.1316 301.388 64.4228ZM299.5 57.1859L299.591 57.1881C299.865 57.2193 300.062 57.4671 300.031 57.7414C299.872 59.1381 299.964 60.268 300.296 61.1307C300.624 61.9823 301.258 62.7605 302.211 63.4653C302.433 63.6295 302.48 63.9426 302.316 64.1646C302.151 64.3866 301.838 64.4335 301.616 64.2692C300.519 63.4574 299.763 62.5308 299.363 61.4899C298.966 60.4599 298.861 59.1729 299.037 57.6283C299.065 57.3845 299.264 57.2016 299.5 57.1859Z" fill="#6B6E74"/>
<path d="M293.235 69.6089L293.803 70.9454" stroke="#6B6E74" stroke-linecap="round" stroke-linejoin="round"/>
<path d="M235.5 28.5H4.5C2.29086 28.5 0.5 30.2909 0.5 32.5V111.5C0.5 113.709 2.29086 115.5 4.5 115.5H235.5C237.709 115.5 239.5 113.709 239.5 111.5V32.5C239.5 30.2909 237.709 28.5 235.5 28.5Z" stroke="#6B6E74"/>
<path d="M52 104.5C69.6731 104.5 84 90.1731 84 72.5C84 54.8269 69.6731 40.5 52 40.5C34.3269 40.5 20 54.8269 20 72.5C20 90.1731 34.3269 104.5 52 104.5Z" fill="#FCDED8"/>
<path d="M48 104C65.397 104 79.5 89.897 79.5 72.5C79.5 55.103 65.397 41 48 41C30.603 41 16.5 55.103 16.5 72.5C16.5 89.897 30.603 104 48 104Z" stroke="#6B6E74"/>
<path d="M57.2241 74.4839C57.7764 74.4839 58.2241 74.0362 58.2241 73.4839C58.2241 72.9316 57.7764 72.4839 57.2241 72.4839C56.6718 72.4839 56.2241 72.9316 56.2241 73.4839C56.2241 74.0362 56.6718 74.4839 57.2241 74.4839Z" stroke="#6B6E74"/>
<path d="M38.7241 74.4839C39.2764 74.4839 39.7241 74.0362 39.7241 73.4839C39.7241 72.9316 39.2764 72.4839 38.7241 72.4839C38.1718 72.4839 37.7241 72.9316 37.7241 73.4839C37.7241 74.0362 38.1718 74.4839 38.7241 74.4839Z" stroke="#6B6E74"/>
<path d="M52.2241 68.9839C52.7764 68.9839 53.2241 68.5362 53.2241 67.9839C53.2241 67.4316 52.7764 66.9839 52.2241 66.9839C51.6718 66.9839 51.2241 67.4316 51.2241 67.9839C51.2241 68.5362 51.6718 68.9839 52.2241 68.9839Z" fill="#DADBDC" stroke="#6B6E74"/>
<path d="M44.2241 68.9839C44.7764 68.9839 45.2241 68.5362 45.2241 67.9839C45.2241 67.4316 44.7764 66.9839 44.2241 66.9839C43.6718 66.9839 43.2241 67.4316 43.2241 67.9839C43.2241 68.5362 43.6718 68.9839 44.2241 68.9839Z" fill="#DADBDC" stroke="#6B6E74"/>
<path d="M27 95.9022L28.1193 93.6619C28.7365 92.4264 29.7611 91.4417 31.0201 90.874C36.9662 88.1925 40.5614 86.3731 41.8057 85.4159C43.1801 84.3586 43.9669 82.5985 44.1662 80.1357" stroke="#6B6E74" stroke-linecap="round" stroke-linejoin="round"/>
<path d="M68.6738 95.9021L67.0296 92.5859C66.4799 91.4771 65.6007 90.5654 64.5125 89.9758C58.8643 86.9153 55.5499 85.0234 54.5693 84.3002C53.4956 83.5083 52.7582 82.3019 52.3569 80.6809" stroke="#6B6E74"/>
<path d="M38.7095 87.5134C39.3481 90.4668 40.0167 92.661 40.7151 94.0959C41.4136 95.5308 42.7644 97.4853 44.7676 99.9593" stroke="#6B6E74" stroke-linecap="round" stroke-linejoin="round"/>
<path d="M52.3569 98.0471C54.1001 96.0853 55.2651 94.4671 55.8518 93.1925C56.4385 91.9179 56.9877 89.8123 57.4993 86.8755" stroke="#6B6E74" stroke-linecap="round" stroke-linejoin="round"/>
<path d="M39.8901 90.6599C42.8702 92.0965 45.3327 92.8465 47.2776 92.9097C49.2225 92.973 52.3802 92.4059 56.7505 91.2085" stroke="#6B6E74" stroke-linecap="round" stroke-linejoin="round"/>
<path d="M39.8901 74.9265C43.1335 78.9905 46.0737 80.9185 48.7109 80.7105C51.3481 80.5025 54.028 78.5745 56.7505 74.9265" stroke="#6B6E74" stroke-linecap="round" stroke-linejoin="round"/>
<path d="M54.0625 51.4243C57.3986 54.2042 59.6336 57.7157 60.7675 61.9588C61.4415 64.4807 61.1628 70.9955 61.6349 76.8943C61.8498 79.5784 62.4135 83.5767 63.3261 88.889" stroke="#6B6E74" stroke-linecap="round" stroke-linejoin="round"/>
<path d="M31.6206 90.5201C32.4421 90.3621 33.1886 87.4777 33.86 81.8669C34.8671 73.4507 33.8434 73.3689 35.0022 65.7102C36.161 58.0514 37.5471 55.4426 41.3993 52.3868C43.9675 50.3496 46.7661 49.6165 49.7952 50.1875" stroke="#6B6E74" stroke-linecap="round" stroke-linejoin="round"/>
<path d="M39.4053 63.4853C42.2064 63.0587 44.3006 62.4888 45.6881 61.7757C47.0755 61.0626 49.1041 59.5134 51.7739 57.1282C52.4888 59.3217 53.1738 60.8936 53.829 61.8439C54.4842 62.7941 55.458 63.628 56.7504 64.3454V66.6952" stroke="#6B6E74" stroke-linecap="round" stroke-linejoin="round"/>
<path d="M42.3833 65.6262C43.0218 65.0529 43.5703 64.7172 44.0287 64.6192C44.487 64.5212 45.1925 64.5888 46.145 64.8219" stroke="#6B6E74" stroke-linecap="round" stroke-linejoin="round"/>
<path d="M50.5464 64.6107C51.0374 64.3674 51.594 64.2357 52.2163 64.2158C52.8385 64.1958 53.3896 64.4908 53.8696 65.1007" stroke="#6B6E74" stroke-linecap="round" stroke-linejoin="round"/>
<path d="M48.3205 70.26L48.5836 71.5661L48.0781 72.2652" stroke="#6B6E74" stroke-linecap="round" stroke-linejoin="round"/>
<path d="M46.145 74.9265C47.1196 75.4934 47.8749 75.7768 48.4109 75.7768C48.947 75.7768 49.6587 75.4934 50.5462 74.9265" stroke="#6B6E74" stroke-linecap="round" stroke-linejoin="round"/>
<path d="M37.2597 72.9458L36.185 71.657C35.7552 71.1416 35.5107 70.4969 35.4905 69.8262C35.4721 69.2166 35.5484 68.7876 35.7194 68.5391C36.2637 67.7483 37.3461 67.5485 38.1369 68.0928C38.3028 68.207 38.4476 68.3491 38.5648 68.5129L39.4053 69.687L39.89 65.158" stroke="#6B6E74" stroke-linecap="round" stroke-linejoin="round"/>
<path d="M57.1064 70.0626C57.7176 68.2468 58.3624 67.3389 59.0406 67.3389C60.0579 67.3389 61.246 68.331 61.1212 70.0626C61.038 71.2169 60.1969 72.3363 58.5977 73.4206" stroke="#6B6E74" stroke-linecap="round" stroke-linejoin="round"/>
<path d="M59.1183 69.6365L58.5977 71.2627" stroke="#6B6E74" stroke-linecap="round" stroke-linejoin="round"/>
<path d="M37.2314 69.6365L38.0088 71.2627" stroke="#6B6E74" stroke-linecap="round" stroke-linejoin="round"/>
<path d="M51.709 50.416L52.2907 50.5839" stroke="#6B6E74" stroke-linecap="round" stroke-linejoin="round"/>
<path d="M190 52H96C95.4477 52 95 52.4477 95 53C95 53.5523 95.4477 54 96 54H190C190.552 54 191 53.5523 191 53C191 52.4477 190.552 52 190 52Z" fill="#6B6E74"/>
<path d="M142.5 62H95.5C95.2239 62 95 62.2239 95 62.5C95 62.7761 95.2239 63 95.5 63H142.5C142.776 63 143 62.7761 143 62.5C143 62.2239 142.776 62 142.5 62Z" fill="#6B6E74"/>
<path d="M300.374 164.898H204.374C202.164 164.898 200.374 166.689 200.374 168.898V208.898C200.374 211.107 202.164 212.898 204.374 212.898H300.374C302.583 212.898 304.374 211.107 304.374 208.898V168.898C304.374 166.689 302.583 164.898 300.374 164.898Z" fill="#E8DCF7"/>
<path d="M295.374 214.898C296.428 214.898 297.292 214.082 297.368 213.047L297.374 212.898V172.898C297.374 171.844 296.558 170.98 295.523 170.903L295.374 170.898H199.374C198.319 170.898 197.455 171.714 197.379 172.749L197.374 172.898V212.898C197.374 213.952 198.189 214.816 199.224 214.892L199.374 214.898H238.374V216.898H199.374C197.164 216.898 195.374 215.107 195.374 212.898V172.898C195.374 170.689 197.164 168.898 199.374 168.898H295.374C297.583 168.898 299.374 170.689 299.374 172.898V212.898C299.374 215.107 297.583 216.898 295.374 216.898H252.374V214.898H295.374Z" fill="#6B6E74"/>
<path d="M234.403 202.53C233.975 202.53 233.638 202.468 233.392 202.345V201.354C233.715 201.445 234.052 201.491 234.403 201.491C234.854 201.491 235.196 201.354 235.429 201.081C235.666 200.807 235.784 200.413 235.784 199.898V189.904H236.946V199.802C236.946 200.668 236.728 201.338 236.29 201.812C235.853 202.291 235.224 202.53 234.403 202.53ZM245.901 196.145C245.901 197.366 245.594 198.321 244.979 199.009C244.363 199.693 243.513 200.035 242.429 200.035C241.759 200.035 241.164 199.877 240.645 199.563C240.125 199.249 239.724 198.797 239.441 198.209C239.159 197.622 239.018 196.933 239.018 196.145C239.018 194.924 239.323 193.973 239.934 193.294C240.544 192.611 241.392 192.269 242.477 192.269C243.525 192.269 244.356 192.618 244.972 193.315C245.591 194.012 245.901 194.956 245.901 196.145ZM240.193 196.145C240.193 197.102 240.385 197.831 240.768 198.333C241.15 198.834 241.713 199.084 242.456 199.084C243.199 199.084 243.762 198.836 244.145 198.339C244.532 197.838 244.726 197.107 244.726 196.145C244.726 195.193 244.532 194.47 244.145 193.978C243.762 193.481 243.194 193.233 242.442 193.233C241.7 193.233 241.139 193.477 240.761 193.964C240.382 194.452 240.193 195.179 240.193 196.145ZM249.032 199.898H247.897V192.406H249.032V199.898ZM247.802 190.375C247.802 190.116 247.866 189.927 247.993 189.808C248.121 189.685 248.28 189.624 248.472 189.624C248.654 189.624 248.811 189.685 248.943 189.808C249.076 189.931 249.142 190.12 249.142 190.375C249.142 190.631 249.076 190.822 248.943 190.95C248.811 191.073 248.654 191.134 248.472 191.134C248.28 191.134 248.121 191.073 247.993 190.95C247.866 190.822 247.802 190.631 247.802 190.375ZM256.565 199.898V195.051C256.565 194.441 256.426 193.985 256.148 193.684C255.87 193.383 255.435 193.233 254.843 193.233C254.059 193.233 253.485 193.445 253.12 193.869C252.756 194.292 252.573 194.992 252.573 195.967V199.898H251.438V192.406H252.361L252.546 193.431H252.601C252.833 193.062 253.159 192.777 253.578 192.577C253.997 192.372 254.465 192.269 254.979 192.269C255.882 192.269 256.561 192.488 257.017 192.925C257.472 193.358 257.7 194.053 257.7 195.01V199.898H256.565Z" fill="#722ED1"/>
<path d="M194.374 360.935C204.967 344.234 210.911 334.35 212.207 331.282C214.15 326.681 214.075 324.451 211.111 309.697C208.148 294.943 207.058 299.136 206.693 290.693C206.329 282.251 208.284 271.445 208.205 264.237C208.127 257.029 204.799 253.868 204.799 250.255C204.799 247.846 205.934 246.182 208.205 245.264C210.876 245.002 213.193 246.005 215.158 248.273C217.122 250.54 218.29 254.022 218.661 258.717C218.673 266.175 219.066 271.893 219.839 275.872C220.998 281.84 222.361 284.995 223.729 284.802C225.096 284.609 231.081 275.82 231.611 268.948C232.14 262.077 230.763 260.695 233.554 245.264C236.346 229.833 237.35 223.884 241.075 216.631C244.801 209.377 247.027 209.28 248.348 210.46C249.669 211.64 250.573 214.624 249.398 224.066C248.615 230.36 247.19 241.019 245.124 256.043C244.749 261.815 244.898 266.117 245.57 268.948" stroke="#6B6E74" stroke-width="2" stroke-linecap="round" stroke-linejoin="round"/>
<path d="M228.556 368.769C235.102 361.651 243.874 349.413 254.873 332.054C271.371 306.016 272.34 305.652 273.691 296.56C275.042 287.468 269.842 281.239 268.85 280.071C268.188 279.293 267.496 281.354 266.773 286.254C267.17 282.462 266.656 279.243 265.232 276.596C263.095 272.627 260.602 271.495 259.442 272.635C258.669 273.395 258.669 276.612 259.442 282.288C257.059 271.369 255.735 265.507 255.468 264.703C255.069 263.497 254.294 258.965 251.118 257.279C249 256.155 247.191 256.404 245.69 258.024" stroke="#6B6E74" stroke-width="2" stroke-linecap="round" stroke-linejoin="round"/>
<path d="M309.952 180.102C311.405 178.164 312.705 176.872 313.85 176.228C314.995 175.583 316.985 175.022 319.818 174.546" stroke="#6B6E74" stroke-linecap="round" stroke-linejoin="round"/>
<path d="M311.409 188.898L319.818 187.447" stroke="#6B6E74" stroke-linecap="round" stroke-linejoin="round"/>
<path d="M311.409 198.527C314.657 200.031 316.761 200.882 317.724 201.079C318.686 201.277 320.132 201.154 322.061 200.711" stroke="#6B6E74" stroke-linecap="round" stroke-linejoin="round"/>
<path d="M186.952 180.102C185.072 178.218 183.56 176.954 182.415 176.309C181.27 175.664 179.493 175.076 177.085 174.546" stroke="#6B6E74" stroke-linecap="round" stroke-linejoin="round"/>
<path d="M185.494 188.898C182.993 189.72 181.196 190.037 180.105 189.848C179.014 189.66 177.6 188.55 175.864 186.519" stroke="#6B6E74" stroke-linecap="round" stroke-linejoin="round"/>
<path d="M185.494 198.527C182.104 199.463 179.927 200.029 178.965 200.227C178.003 200.424 177.143 201.648 176.384 203.901" stroke="#6B6E74" stroke-linecap="round" stroke-linejoin="round"/>
</svg>
