<svg width="110" height="32" viewBox="0 0 110 32" fill="none" xmlns="http://www.w3.org/2000/svg">
<path fill-rule="evenodd" clip-rule="evenodd" d="M38.9964 12.2935C38.9964 11.9208 38.8303 11.6824 38.5422 11.5014C37.9729 11.1448 37.3976 10.7973 36.8278 10.4412C35.418 9.56041 34.0097 8.67844 32.6026 7.79531C32.2824 7.59414 31.9913 7.60923 31.6801 7.8104C30.8927 8.31936 30.0963 8.81323 29.3094 9.32219C29.0753 9.47307 28.8702 9.4957 28.636 9.32219C28.0638 8.8942 27.4955 8.45816 26.9002 8.06488C26.4254 7.75055 26.2498 7.33714 26.2658 6.78141C26.2893 6.02099 26.2723 5.26006 26.2708 4.49913C26.2707 4.43448 26.2624 4.3701 26.2463 4.30752C26.1643 3.98565 25.9176 3.83225 25.664 3.68993C24.7415 3.17694 23.8456 2.6187 22.9456 2.0685C21.9121 1.43883 20.8901 0.796094 19.866 0.154864C19.6309 0.00800979 19.3923 -0.0699437 19.1377 0.0839515C18.7104 0.342958 18.2862 0.614035 17.86 0.877568C17.0929 1.35132 16.3245 1.82374 15.5548 2.29481C14.7199 2.80327 13.8814 3.3067 13.0295 3.78749C12.8036 3.91276 12.6473 4.13515 12.6053 4.39101C12.5633 4.5957 12.6208 4.78228 12.6163 4.97691C12.5983 5.7313 12.6378 6.48116 12.5893 7.23404C12.5693 7.54787 12.4797 7.79732 12.2391 7.97686C11.5983 8.45062 10.9499 8.91432 10.3031 9.37952C10.1852 9.47621 10.0205 9.49057 9.88788 9.41573C9.81084 9.37349 9.73781 9.31867 9.66627 9.27089C8.85985 8.74533 8.04794 8.22883 7.2105 7.75558C6.98813 7.62769 6.71341 7.63507 6.49814 7.77469C6.13528 7.99966 5.77493 8.22447 5.41708 8.44911L2.48307 10.2848C1.70166 10.7721 0.925265 11.2615 0.143862 11.7458C0.0495441 11.7923 -0.00710643 11.8919 0.000788273 11.9973C0.00679137 13.3496 0.00429008 14.702 0.00429008 16.0543C0.00429008 17.4067 0.00429008 18.7701 0.000788273 20.128C-0.00689586 20.2224 0.0421122 20.3122 0.125352 20.3564C1.13387 20.9894 2.14289 21.6219 3.15241 22.2539C4.21963 22.9245 5.28685 23.595 6.35406 24.2656C6.52124 24.378 6.71878 24.436 6.91985 24.4316C7.13246 24.426 7.29005 24.3194 7.45413 24.2214C8.27505 23.73 9.08947 23.2281 9.88738 22.699C10.0725 22.5763 10.2436 22.5587 10.4467 22.7126C10.9589 23.1013 11.4912 23.4634 12.014 23.8381C12.1641 23.9447 12.3051 24.0594 12.4522 24.1686C12.7629 24.4004 12.7864 24.7474 12.7929 25.0864C12.8064 25.7684 12.7969 26.4508 12.7964 27.1328C12.7996 27.1689 12.7996 27.2053 12.7964 27.2414C12.7183 27.6438 12.8524 27.9516 13.1901 28.1698C13.7049 28.5023 14.2406 28.798 14.7679 29.1103C15.685 29.6535 16.5977 30.2043 17.5058 30.7629C18.1301 31.1456 18.782 31.4821 19.3758 31.9146C19.5489 32.0408 19.758 32.0192 19.9461 31.9015C20.0226 31.8512 20.0771 31.7849 20.1547 31.7381C21.2212 31.0974 22.2833 30.4491 23.3503 29.8089C24.2253 29.2843 25.1012 28.7618 25.9852 28.2498C26.3564 28.035 26.5205 27.7333 26.4944 27.3068C26.4834 27.1278 26.4624 26.9492 26.4584 26.7712C26.4434 26.0007 26.4534 25.2297 26.4939 24.4577C26.492 24.3216 26.5553 24.1929 26.664 24.1117C27.3499 23.5877 28.0673 23.1089 28.7591 22.5934C28.8351 22.5366 28.9017 22.5431 28.9812 22.5934C29.896 23.1768 30.8122 23.7582 31.7296 24.3375C31.9848 24.4985 32.2544 24.5442 32.5246 24.3763C32.9248 24.1278 33.321 23.8703 33.7202 23.6189C34.5446 23.0992 35.3699 22.5808 36.1959 22.0638C37.0109 21.5548 37.8328 21.058 38.6422 20.5379C38.8731 20.4007 39.0104 20.147 38.9994 19.8776C38.9884 17.3516 38.9874 14.8235 38.9964 12.2935ZM12.5663 9.01239V11.0804L11.0205 10.1088L12.5663 9.01239ZM7.0094 23.2578C6.87783 23.3387 6.74827 23.2578 6.63621 23.1914C6.30704 22.9967 5.98287 22.7936 5.6587 22.5909C4.72489 22.0081 3.79108 21.4243 2.85726 20.8392C2.357 20.5264 1.85674 20.2151 1.36599 19.8922C1.18643 19.7773 1.07962 19.5765 1.08435 19.3626C1.07434 18.5197 1.05683 17.6773 1.05033 16.8349C1.04433 16.0926 1.03182 15.3492 1.05433 14.6074C1.07334 13.9823 1.07584 13.3567 1.08985 12.7315C1.09535 12.4951 1.22992 12.3106 1.43453 12.1813C2.50708 11.5061 3.57897 10.8298 4.65018 10.1525C5.30402 9.74163 5.95786 9.33175 6.6177 8.93091C6.77128 8.83737 6.94137 8.81122 7.11796 8.92236C7.74728 9.31917 8.38211 9.70793 9.01443 10.0997C9.11048 10.1591 9.15401 10.1897 9.01694 10.2833C8.49116 10.6449 7.9709 11.0155 7.46614 11.4068C7.21179 11.5927 7.06266 11.8909 7.06593 12.207C7.06943 12.9553 7.09544 13.7052 7.05943 14.4515C7.01941 15.2708 7.0184 16.0896 7.03842 16.9073C7.06243 17.8951 7.05592 18.8823 7.07093 19.8695C7.07644 20.2316 7.30455 20.4761 7.5832 20.6742L9.15551 21.7993C9.18002 21.8169 9.20553 21.8335 9.24505 21.8601C8.48416 22.3369 7.74878 22.8006 7.0094 23.2578ZM10.4212 21.1414C10.2411 21.2611 10.102 21.2476 9.9094 21.1067C9.43865 20.7612 8.96191 20.4228 8.49467 20.0722C8.22553 19.8711 8.07295 19.602 8.07345 19.2489C8.07745 17.1673 8.08996 15.0857 8.06594 13.0041C8.05944 12.4539 8.25504 12.0677 8.68626 11.7649C9.05796 11.5044 9.41964 11.2303 9.80684 10.9924C10.0139 10.8657 10.202 10.8637 10.4132 10.9924C11.0305 11.3605 11.6458 11.7312 12.2386 12.1396C12.5122 12.3277 12.6573 12.564 12.6543 12.9065C12.6463 13.8837 12.6518 14.8614 12.6518 15.8386C12.6518 16.8404 12.6518 17.8421 12.6518 18.8436C12.6518 19.0498 12.7053 19.2459 12.6653 19.4637C12.6315 19.6776 12.499 19.8627 12.3081 19.9631C11.6643 20.3307 11.04 20.7316 10.4212 21.1414ZM12.7574 23.1184L11.112 21.9461L12.7574 20.9217V23.1184ZM25.2768 19.0105C25.2268 19.0407 25.1728 18.9763 25.1232 18.9467C23.9353 18.2369 22.747 17.5276 21.5584 16.8188C21.3313 16.6835 21.1022 16.5522 20.873 16.42C20.717 16.33 20.6039 16.1851 20.6229 16.0176C20.6469 15.8235 20.6729 15.6088 20.8785 15.484C21.6099 15.045 22.3348 14.5959 23.0652 14.1558C23.7815 13.7238 24.5019 13.3008 25.2213 12.8718C25.2455 12.8621 25.2709 12.8556 25.2968 12.8527V13.1625C25.2968 15.0562 25.2968 16.9506 25.2968 18.8456C25.2978 18.9009 25.3273 18.9809 25.2768 19.0105ZM24.7766 11.9273C23.4259 12.7205 22.0862 13.5367 20.7425 14.3439C20.7126 14.3575 20.6814 14.3679 20.6494 14.3751C20.6494 13.7027 20.6494 13.0403 20.6494 12.378C20.6494 12.2326 20.7495 12.1491 20.8495 12.0762C22.1129 11.1733 23.3773 10.2722 24.643 9.37298C24.8381 9.23368 25.0297 9.08934 25.2258 8.9455C25.2793 9.01289 25.2573 9.07475 25.2578 9.13108C25.2578 9.76476 25.2383 10.3995 25.2663 11.0321C25.2883 11.4536 25.1392 11.7181 24.7781 11.9278L24.7766 11.9273ZM13.6207 5.20625C13.6176 4.99173 13.6832 4.78188 13.8079 4.60777C13.8344 4.56801 13.8684 4.53384 13.908 4.50718C14.8644 3.92446 15.8238 3.34408 16.7859 2.76605C17.5443 2.31342 18.3132 1.87789 19.0646 1.41318C19.3488 1.23716 19.5824 1.26985 19.8485 1.43179C20.5124 1.83413 21.1862 2.22239 21.8526 2.62222C22.8741 3.23377 23.8961 3.84734 24.9136 4.47097C25.1507 4.61632 25.2593 4.86526 25.2638 5.13986C25.2723 5.80976 25.2738 6.48016 25.2638 7.15156C25.2583 7.50361 25.1027 7.78173 24.8096 7.99044C23.685 8.79261 22.5674 9.60332 21.4443 10.4075C20.9601 10.754 20.4653 11.0859 19.9836 11.435C19.7681 11.5917 19.6427 11.8446 19.6479 12.1119C19.6424 12.4177 19.6649 12.7235 19.6739 13.0282C19.6904 13.5684 19.6584 14.1095 19.6454 14.6502C19.6419 14.798 19.5609 14.9187 19.5008 15.0465C19.4853 15.0802 19.4653 15.1164 19.4253 15.1078C19.3753 15.0978 19.3948 15.05 19.3948 15.0178C19.3948 14.6316 19.3948 14.2453 19.3948 13.8611C19.3948 13.5473 19.3903 13.2334 19.3948 12.9196C19.3983 12.729 19.4258 12.5384 19.4273 12.3478C19.4318 11.9027 19.2317 11.5662 18.8745 11.3118C17.7886 10.5406 16.7037 9.76678 15.6198 8.99026C15.0821 8.60653 14.5458 8.22129 14.004 7.84359C13.7584 7.67259 13.6153 7.46841 13.6233 7.14804C13.6358 6.49877 13.6248 5.85251 13.6243 5.20675L13.6207 5.20625ZM13.6208 8.8419C13.8629 9.00535 14.089 9.15119 14.3087 9.3066C14.8716 9.70626 15.4331 10.1086 15.993 10.5136C16.66 10.9931 17.3247 11.4734 17.9871 11.9545C18.2832 12.1703 18.3658 12.4926 18.3738 12.8331C18.3853 13.3521 18.3768 13.8717 18.3738 14.3922C18.3738 14.4138 18.3688 14.4354 18.3638 14.4817C18.0426 14.2936 17.7379 14.1186 17.4368 13.9375C16.7698 13.5375 16.1043 13.1352 15.4402 12.7305C14.902 12.4051 14.3627 12.0817 13.8264 11.7538C13.7059 11.6804 13.6193 11.5733 13.6188 11.4239C13.6238 10.5745 13.6248 9.72453 13.6248 8.8424L13.6208 8.8419ZM13.7319 12.9558C13.9565 13.0403 14.1471 13.1746 14.3442 13.2918C15.3412 13.8837 16.3382 14.4767 17.3277 15.0817C17.6379 15.2713 17.9781 15.4192 18.2407 15.6822C18.5033 15.9452 18.4248 16.3295 18.1586 16.5271C17.7975 16.7947 17.3948 16.9963 17.0121 17.2312C16.171 17.7422 15.3287 18.2501 14.4853 18.7551C14.2446 18.8999 13.9985 19.0357 13.7319 19.1881V12.9558ZM13.8319 20.5264C13.8227 20.4181 13.8808 20.3153 13.978 20.2679C14.8741 19.7341 15.7687 19.1976 16.6619 18.6585C17.2222 18.3225 17.7815 17.9851 18.3743 17.628C18.3743 18.235 18.3813 18.8074 18.3743 19.3792C18.3693 19.684 18.2167 19.9037 17.9625 20.0833C16.6579 20.9971 15.3612 21.922 14.0605 22.8438C13.9935 22.8916 13.9305 22.9444 13.8639 22.9947C13.8139 22.9545 13.8374 22.9032 13.8374 22.8609C13.8404 22.0839 13.8434 21.3054 13.8379 20.5269L13.8319 20.5264ZM25.4434 26.8059C25.4451 27.02 25.3809 27.2293 25.2598 27.4054C25.2375 27.441 25.2083 27.4716 25.1738 27.4954C24.4244 27.9514 23.674 28.4062 22.9226 28.8598C22.0942 29.3581 21.2644 29.8538 20.4333 30.347C20.2712 30.4436 20.1006 30.526 19.9441 30.6296C19.6839 30.8006 19.4558 30.7156 19.2202 30.5743C17.7711 29.7026 16.3204 28.834 14.868 27.9687C14.6178 27.8178 14.3787 27.6604 14.1346 27.506C13.9385 27.3937 13.823 27.1791 13.8369 26.9527C13.8475 26.7732 13.8381 26.5931 13.8089 26.4156C13.7704 26.228 13.8229 26.0354 13.8384 25.8448C13.8679 25.4777 13.7979 25.114 13.8004 24.7469C13.8004 24.4215 13.933 24.1892 14.2006 24.0011C15.2486 23.2628 16.2867 22.5114 17.3307 21.7676C17.8735 21.3808 18.4253 21.0072 18.9646 20.6159C19.3172 20.3604 19.4928 20.0099 19.3963 19.5069C19.3901 19.4653 19.3879 19.4232 19.3898 19.3812C19.3898 18.7953 19.3898 18.2099 19.3898 17.6245C19.3898 17.2905 19.4398 17.1361 19.6184 16.8731C19.6281 16.8962 19.6351 16.9203 19.6394 16.945C19.6274 17.5712 19.7175 18.1963 19.6714 18.8209C19.6489 19.1227 19.6434 19.4204 19.6424 19.7207C19.6424 20.1321 19.817 20.4469 20.1522 20.6833C21.3781 21.549 22.6026 22.417 23.8256 23.2874C24.2533 23.5892 24.676 23.903 25.1072 24.2022C25.3262 24.3415 25.4544 24.5878 25.4434 24.848C25.4409 25.5018 25.4424 26.1521 25.4434 26.8059ZM25.4689 21.8073C25.4349 22.1131 25.3644 22.4164 25.4359 22.7302C25.4669 22.8675 25.4409 23.0184 25.4409 23.1883C24.5104 22.5245 23.6325 21.8305 22.698 21.2103C22.3238 20.9629 21.9276 20.7522 21.5639 20.4856C20.8355 19.9515 20.4989 19.2419 20.5854 18.3447C20.6119 18.0691 20.6569 17.7945 20.6529 17.4832C21.0897 17.7563 21.4979 18.0107 21.9036 18.2662C22.714 18.7737 23.5399 19.2519 24.3934 19.6845C24.9151 19.949 25.3173 20.3358 25.4584 20.9418C25.5279 21.232 25.5009 21.5166 25.4689 21.8068V21.8073ZM26.2768 8.87861L28.0107 10.1088L26.2768 11.1936V8.87861ZM26.4924 22.964V21.0554L27.9152 21.9466L26.4924 22.964ZM28.584 21.1228C27.9522 20.7114 27.2964 20.3373 26.6795 19.9027C26.5222 19.7943 26.417 19.6248 26.3894 19.435C26.3608 19.1977 26.3473 18.9589 26.3489 18.7199C26.3369 17.7301 26.3439 16.7403 26.3439 15.7526C26.3439 14.7809 26.3504 13.8093 26.3399 12.8381C26.3369 12.5454 26.4369 12.3352 26.685 12.1843C27.3289 11.7946 27.9697 11.3998 28.612 11.0075C28.8577 10.8566 29.0893 10.9109 29.3159 11.0578C29.6391 11.263 29.9607 11.4707 30.2874 11.6709C30.8047 11.9872 31.0633 12.4514 31.0248 13.0534C30.9022 14.9786 30.9788 16.9058 30.9557 18.832C30.9557 19.0558 31.0113 19.2731 30.9688 19.5064C30.9361 19.7249 30.8093 19.9178 30.6221 20.0335C30.1073 20.3679 29.6121 20.7285 29.1268 21.1047C28.9342 21.2496 28.7896 21.2551 28.584 21.1228ZM37.5466 19.9747C36.6647 20.5208 35.7897 21.0811 34.9098 21.6283C34.0904 22.1396 33.2688 22.6479 32.445 23.1531C32.1804 23.3156 31.9392 23.213 31.7021 23.0631C31.1018 22.6819 30.497 22.3022 29.8872 21.9341C29.7631 21.8591 29.8372 21.8299 29.8912 21.7917C30.4795 21.3669 31.0686 20.9431 31.6586 20.5203C31.8486 20.3921 31.9625 20.1771 31.9623 19.947C31.9669 17.309 31.9669 14.6708 31.9623 12.0325C31.9623 11.7418 31.7902 11.5441 31.5666 11.3912C31.0393 11.0306 30.5205 10.6585 30.0053 10.2813C29.8782 10.1882 29.9222 10.1626 30.0103 10.1083C30.6711 9.69788 31.3294 9.28497 31.9938 8.88112C32.1409 8.7916 32.2939 8.85547 32.428 8.93896C33.8534 9.82813 35.278 10.7185 36.7017 11.61C37.0264 11.8112 37.352 12.0123 37.6702 12.2276C37.8455 12.3377 37.9503 12.5323 37.9463 12.7401C37.9433 13.8465 37.9463 14.9499 37.9463 16.0543C37.9463 17.1291 37.9408 18.2039 37.9494 19.2781C37.9524 19.5995 37.8113 19.8087 37.5466 19.9726V19.9747Z" fill="#2F5082"/>
<path fill-rule="evenodd" clip-rule="evenodd" d="M58.5337 23.7083V16.5833H59.6291C61.5349 16.5833 62.8356 16.5 63.5311 16.3333C64.484 16.1042 65.2317 15.658 65.7742 14.9948C66.3167 14.3316 66.588 13.4896 66.588 12.4688C66.588 11.4549 66.3098 10.6128 65.7533 9.94271C65.1969 9.27257 64.4805 8.82986 63.6041 8.61458C62.9921 8.46181 61.8096 8.38542 60.0569 8.38542H57V23.7083H58.5337ZM61.1315 15.1146L58.5337 15.0833V9.875H61.2463C62.2826 9.875 63.0286 9.96528 63.4842 10.1458C63.9397 10.3264 64.3066 10.6302 64.5848 11.0573C64.8631 11.4844 65.0022 11.9549 65.0022 12.4688C65.0022 12.9965 64.8631 13.474 64.5848 13.901C64.3066 14.3281 63.9241 14.6372 63.4372 14.8281C62.9503 15.0191 62.1818 15.1146 61.1315 15.1146ZM74.7258 24C75.63 24 76.4629 23.8125 77.2245 23.4375C77.9861 23.0625 78.673 22.5035 79.285 21.7604V23.7083H80.7248V12.375H79.285V14.4583C78.7147 13.6667 78.0522 13.0729 77.2975 12.6771C76.5429 12.2812 75.6995 12.0833 74.7675 12.0833C73.1539 12.0833 71.7732 12.6632 70.6256 13.8229C69.4779 14.9826 68.9041 16.3785 68.9041 18.0104C68.9041 19.6771 69.4727 21.092 70.6099 22.2552C71.7471 23.4184 73.1191 24 74.7258 24ZM74.8718 22.6667C74.0789 22.6667 73.3364 22.4635 72.6444 22.0573C71.9523 21.651 71.4011 21.0833 70.9907 20.3542C70.5804 19.625 70.3752 18.8611 70.3752 18.0625C70.3752 17.2569 70.5786 16.4931 70.9855 15.7708C71.3924 15.0486 71.9402 14.4878 72.6287 14.0885C73.3173 13.6892 74.0685 13.4896 74.8823 13.4896C76.1482 13.4896 77.2141 13.9306 78.08 14.8125C78.946 15.6944 79.3789 16.7917 79.3789 18.1042C79.3789 18.9653 79.1859 19.7396 78.7999 20.4271C78.4139 21.1146 77.8627 21.6597 77.1463 22.0625C76.4299 22.4653 75.6717 22.6667 74.8718 22.6667ZM86.7551 23.7083V13.625H89.0713V12.375H86.7551V8.16667H85.2841V12.375H83.2913V13.625H85.2841V23.7083H86.7551ZM92.7124 23.7083V19.5521C92.7124 18.0521 92.782 17.0243 92.9211 16.4688C93.1436 15.6076 93.6044 14.8854 94.3034 14.3021C95.0025 13.7187 95.7936 13.4271 96.677 13.4271C97.449 13.4271 98.0733 13.6163 98.5497 13.9948C99.0261 14.3733 99.3548 14.9375 99.5356 15.6875C99.64 16.125 99.6921 16.9965 99.6921 18.3021V23.7083H101.153V17.875C101.153 16.3264 100.996 15.1892 100.683 14.4635C100.37 13.7378 99.8851 13.1597 99.2279 12.7292C98.5706 12.2986 97.8176 12.0833 96.9691 12.0833C96.1414 12.0833 95.3728 12.276 94.6634 12.6615C93.9539 13.0469 93.3036 13.6285 92.7124 14.4062V8H91.2518V23.7083H92.7124ZM106.568 24C107.548 24 108.365 23.6771 109.019 23.0312C109.673 22.3854 110 21.5972 110 20.6667C110 20.0069 109.809 19.4132 109.426 18.8854C109.037 18.3646 108.299 17.8229 107.214 17.2604C106.324 16.8021 105.74 16.4028 105.462 16.0625C105.183 15.7292 105.044 15.3785 105.044 15.0104C105.044 14.5938 105.213 14.2292 105.55 13.9167C105.888 13.6042 106.293 13.4479 106.766 13.4479C107.51 13.4479 108.272 13.8264 109.051 14.5833L109.99 13.6146C108.932 12.5938 107.882 12.0833 106.839 12.0833C105.942 12.0833 105.199 12.3681 104.611 12.9375C104.024 13.5069 103.73 14.2222 103.73 15.0833C103.73 15.7431 103.914 16.3299 104.283 16.8438C104.651 17.3576 105.347 17.8785 106.369 18.4062C107.322 18.8924 107.934 19.2951 108.206 19.6146C108.477 19.941 108.612 20.3125 108.612 20.7292C108.612 21.2361 108.407 21.6771 107.997 22.0521C107.586 22.4271 107.089 22.6146 106.505 22.6146C105.67 22.6146 104.881 22.1944 104.137 21.3542L103.219 22.3958C103.608 22.8958 104.1 23.2882 104.695 23.5729C105.289 23.8576 105.914 24 106.568 24Z" fill="#2F5082"/>
<path d="M49 8.5C49 8.22386 48.7761 8 48.5 8C48.2239 8 48 8.22386 48 8.5V23.5C48 23.7761 48.2239 24 48.5 24C48.7761 24 49 23.7761 49 23.5V8.5Z" fill="#E7EAF0"/>
</svg>
