<svg width="378" height="390" viewBox="0 0 378 390" fill="none" xmlns="http://www.w3.org/2000/svg">
<path d="M94.296 169.299L105.269 168.531C106.371 168.454 107.327 169.285 107.404 170.387C107.481 171.489 106.65 172.445 105.548 172.522L77.6164 174.475C76.5146 174.552 75.5588 173.721 75.4818 172.619C75.4047 171.517 76.2355 170.562 77.3374 170.485L91.6407 169.484C91.6958 169.48 91.7436 169.522 91.7474 169.577C91.7485 169.593 91.746 169.608 91.74 169.622L91.3731 170.505L77.4072 171.482C76.8562 171.521 76.4408 171.998 76.4794 172.549C76.5151 173.061 76.9297 173.456 77.4299 173.479L77.5467 173.477L105.478 171.524C106.029 171.485 106.445 171.008 106.406 170.457C106.371 169.945 105.956 169.55 105.456 169.527L105.339 169.529L94.2006 170.308C94.1455 170.312 94.0977 170.27 94.0938 170.215C94.0932 170.205 94.0939 170.196 94.096 170.186L94.296 169.299Z" fill="#6B6E74"/>
<path d="M97.4789 161.057L176.536 155.529C178.74 155.374 180.651 157.036 180.805 159.24L194.756 358.753C194.911 360.956 193.249 362.868 191.045 363.022L19.4642 375.02C17.2604 375.174 15.349 373.512 15.1949 371.309L1.24363 171.796C1.08952 169.592 2.7511 167.681 4.95486 167.527L93.1804 161.357C93.4559 161.338 93.6948 161.546 93.7141 161.821C93.7195 161.899 93.7068 161.976 93.677 162.048L93.1294 163.366L5.09437 169.522C4.04258 169.595 3.23779 170.469 3.23381 171.507L3.23875 171.656L17.19 371.169C17.2636 372.221 18.1377 373.026 19.1754 373.03L19.3247 373.025L190.906 361.027C191.958 360.953 192.762 360.079 192.766 359.041L192.761 358.892L178.81 159.379C178.736 158.327 177.862 157.523 176.825 157.519L176.675 157.524L97.4279 163.065C97.1524 163.084 96.9135 162.877 96.8943 162.601C96.8888 162.524 96.9015 162.446 96.9313 162.375L97.4789 161.057Z" fill="#6B6E74"/>
<path d="M77.2115 321.436L78.0138 321.38L76.1517 327.951L75.4152 328.003L72.6699 321.754L73.459 321.699L75.2219 325.743C75.4247 326.207 75.5916 326.661 75.7224 327.104C75.7945 326.624 75.8989 326.142 76.0355 325.66L77.2115 321.436ZM79.9656 327.684L79.2379 327.735L78.9019 322.931L79.6296 322.88L79.9656 327.684ZM78.7495 321.633C78.7378 321.466 78.7703 321.342 78.8468 321.26C78.9231 321.176 79.0226 321.129 79.1454 321.121C79.2623 321.112 79.3659 321.145 79.4561 321.218C79.5464 321.291 79.5973 321.409 79.6087 321.573C79.6201 321.736 79.5864 321.862 79.5073 321.95C79.4281 322.035 79.33 322.081 79.2131 322.089C79.0904 322.098 78.9853 322.066 78.898 321.992C78.8104 321.916 78.7609 321.796 78.7495 321.633ZM82.2364 327.526L81.5087 327.576L81.0317 320.755L81.7594 320.704L82.2364 327.526ZM84.5072 327.367L83.7795 327.418L83.3025 320.596L84.0302 320.545L84.5072 327.367ZM89.005 327.052L88.8125 326.378L88.7775 326.381C88.5589 326.699 88.3335 326.92 88.1014 327.045C87.8721 327.167 87.5791 327.24 87.2226 327.265C86.7462 327.298 86.3635 327.202 86.0746 326.975C85.7885 326.748 85.6296 326.409 85.598 325.956C85.5301 324.985 86.2705 324.423 87.8191 324.267L88.6327 324.184L88.6118 323.886C88.5855 323.509 88.4842 323.237 88.3081 323.07C88.1347 322.9 87.8697 322.828 87.5131 322.853C87.1127 322.881 86.6683 323.035 86.1799 323.316L85.9174 322.775C86.1451 322.63 86.3967 322.511 86.6722 322.418C86.9506 322.325 87.2315 322.269 87.515 322.249C88.0878 322.209 88.5205 322.306 88.813 322.541C89.1084 322.776 89.2757 323.174 89.3149 323.735L89.5442 327.015L89.005 327.052ZM87.3252 326.654C87.7782 326.623 88.1246 326.474 88.3644 326.207C88.6072 325.941 88.7129 325.584 88.6816 325.137L88.6513 324.703L87.9257 324.784C87.3485 324.845 86.9369 324.965 86.691 325.144C86.4477 325.319 86.3379 325.575 86.3614 325.911C86.3798 326.174 86.4727 326.369 86.6401 326.495C86.8104 326.621 87.0388 326.674 87.3252 326.654ZM94.6442 321.83L94.6764 322.29L93.7938 322.457C93.8828 322.554 93.9653 322.683 94.0412 322.845C94.117 323.005 94.1621 323.188 94.1766 323.395C94.2095 323.866 94.075 324.253 93.7732 324.556C93.4713 324.859 93.0398 325.03 92.4787 325.069C92.3355 325.079 92.2002 325.077 92.0729 325.062C91.7746 325.248 91.6341 325.465 91.6515 325.713C91.6607 325.844 91.7216 325.939 91.8342 325.995C91.9466 326.049 92.1343 326.067 92.3974 326.048L93.2478 325.989C93.7681 325.953 94.1746 326.034 94.4676 326.234C94.7635 326.434 94.9261 326.742 94.9553 327.16C94.9925 327.692 94.8074 328.112 94.4002 328.419C93.9931 328.73 93.3804 328.914 92.5621 328.971C91.9337 329.015 91.4404 328.932 91.0821 328.722C90.7268 328.512 90.5342 328.193 90.5043 327.767C90.4839 327.474 90.5597 327.215 90.7319 326.989C90.904 326.762 91.1569 326.599 91.4906 326.5C91.364 326.453 91.2542 326.374 91.1613 326.263C91.0713 326.151 91.0208 326.018 91.01 325.864C90.9977 325.688 91.0338 325.531 91.1181 325.393C91.2024 325.255 91.3411 325.118 91.5342 324.981C91.2786 324.896 91.0634 324.736 90.8884 324.502C90.7163 324.267 90.6192 323.992 90.5972 323.677C90.5604 323.151 90.6899 322.735 90.9857 322.429C91.2813 322.121 91.7185 321.946 92.2971 321.906C92.5485 321.888 92.777 321.902 92.9827 321.946L94.6442 321.83ZM91.2051 327.709C91.2233 327.969 91.3467 328.159 91.5753 328.278C91.8039 328.397 92.1228 328.442 92.5319 328.414C93.1427 328.371 93.5878 328.247 93.8672 328.043C94.1497 327.841 94.28 327.583 94.2582 327.271C94.24 327.011 94.1469 326.835 93.979 326.744C93.8114 326.656 93.5054 326.627 93.0612 326.658L92.1888 326.719C91.8585 326.743 91.6069 326.839 91.4338 327.01C91.2607 327.181 91.1845 327.414 91.2051 327.709ZM91.3149 323.609C91.3384 323.945 91.4512 324.192 91.6532 324.352C91.8552 324.511 92.1257 324.578 92.4647 324.555C93.1749 324.505 93.5059 324.135 93.4577 323.446C93.4072 322.724 93.0225 322.388 92.3035 322.438C91.9616 322.462 91.705 322.573 91.5337 322.77C91.3625 322.967 91.2895 323.246 91.3149 323.609ZM98.0024 326.511C97.2922 326.561 96.716 326.384 96.2736 325.98C95.8342 325.576 95.5877 324.99 95.5339 324.221C95.4797 323.447 95.6267 322.818 95.9747 322.336C96.3257 321.853 96.8227 321.589 97.4656 321.544C98.0677 321.502 98.558 321.668 98.9365 322.041C99.3148 322.411 99.5266 322.92 99.572 323.569L99.6041 324.029L96.2944 324.261C96.3484 324.824 96.5201 325.242 96.8094 325.515C97.1016 325.789 97.4933 325.908 97.9842 325.874C98.5015 325.837 99.0054 325.694 99.4959 325.442L99.5413 326.091C99.2918 326.22 99.0533 326.316 98.8257 326.379C98.6012 326.444 98.3268 326.488 98.0024 326.511ZM97.4995 322.154C97.1137 322.181 96.8142 322.328 96.6009 322.596C96.3905 322.863 96.2804 323.22 96.2705 323.668L98.7824 323.492C98.7504 323.033 98.6235 322.689 98.402 322.461C98.1803 322.23 97.8794 322.128 97.4995 322.154ZM105.786 320.015C105.082 320.065 104.541 320.339 104.165 320.838C103.792 321.334 103.633 321.99 103.69 322.805C103.749 323.644 103.99 324.279 104.414 324.71C104.84 325.139 105.417 325.327 106.145 325.277C106.592 325.245 107.097 325.129 107.658 324.928L107.704 325.582C107.271 325.779 106.729 325.901 106.077 325.946C105.133 326.013 104.384 325.777 103.83 325.24C103.278 324.703 102.966 323.907 102.892 322.852C102.846 322.192 102.928 321.604 103.139 321.09C103.352 320.576 103.682 320.168 104.128 319.867C104.577 319.565 105.117 319.393 105.748 319.348C106.42 319.301 107.016 319.383 107.536 319.593L107.265 320.256C106.764 320.061 106.271 319.981 105.786 320.015ZM110.854 320.608C111.067 320.593 111.26 320.597 111.432 320.621L111.378 321.303C111.176 321.273 111 321.263 110.848 321.274C110.459 321.301 110.137 321.482 109.881 321.817C109.628 322.152 109.519 322.555 109.552 323.025L109.732 325.603L109.004 325.654L108.668 320.849L109.269 320.807L109.414 321.691L109.449 321.689C109.606 321.364 109.804 321.107 110.043 320.92C110.283 320.733 110.553 320.629 110.854 320.608ZM114.705 325.343C113.995 325.393 113.418 325.216 112.976 324.812C112.537 324.408 112.29 323.822 112.236 323.053C112.182 322.279 112.329 321.65 112.677 321.168C113.028 320.685 113.525 320.421 114.168 320.376C114.77 320.334 115.26 320.5 115.639 320.873C116.017 321.243 116.229 321.752 116.274 322.401L116.307 322.861L112.997 323.093C113.051 323.656 113.222 324.074 113.512 324.347C113.804 324.621 114.196 324.74 114.687 324.706C115.204 324.67 115.708 324.526 116.198 324.274L116.244 324.923C115.994 325.052 115.756 325.148 115.528 325.211C115.304 325.276 115.029 325.321 114.705 325.343ZM114.202 320.986C113.816 321.013 113.517 321.161 113.303 321.428C113.093 321.695 112.983 322.052 112.973 322.5L115.485 322.324C115.453 321.865 115.326 321.522 115.104 321.293C114.883 321.062 114.582 320.96 114.202 320.986ZM119.746 324.991C119.036 325.04 118.46 324.863 118.017 324.46C117.578 324.056 117.331 323.469 117.278 322.701C117.224 321.926 117.37 321.298 117.719 320.815C118.069 320.333 118.566 320.069 119.209 320.024C119.811 319.982 120.302 320.147 120.68 320.52C121.059 320.89 121.27 321.4 121.316 322.048L121.348 322.509L118.038 322.74C118.092 323.303 118.264 323.721 118.553 323.995C118.845 324.268 119.237 324.388 119.728 324.353C120.245 324.317 120.749 324.173 121.24 323.921L121.285 324.57C121.036 324.699 120.797 324.795 120.57 324.858C120.345 324.924 120.071 324.968 119.746 324.991ZM119.243 320.634C118.857 320.661 118.558 320.808 118.345 321.075C118.134 321.343 118.024 321.7 118.014 322.147L120.526 321.971C120.494 321.513 120.367 321.169 120.146 320.941C119.924 320.71 119.623 320.607 119.243 320.634ZM125.977 323.819L125.938 323.822C125.636 324.334 125.15 324.613 124.481 324.66C123.852 324.704 123.348 324.523 122.967 324.118C122.589 323.713 122.373 323.114 122.317 322.322C122.262 321.53 122.394 320.902 122.714 320.44C123.034 319.977 123.507 319.723 124.132 319.68C124.784 319.634 125.301 319.836 125.681 320.285L125.738 320.281L125.683 319.937L125.642 319.6L125.506 317.645L126.233 317.594L126.71 324.416L126.119 324.457L125.977 323.819ZM124.53 324.044C125.027 324.009 125.377 323.85 125.58 323.565C125.786 323.278 125.868 322.833 125.826 322.231L125.816 322.077C125.768 321.396 125.62 320.919 125.372 320.646C125.126 320.369 124.755 320.248 124.258 320.283C123.832 320.313 123.516 320.502 123.311 320.852C123.109 321.198 123.03 321.673 123.072 322.278C123.115 322.892 123.26 323.347 123.507 323.644C123.754 323.941 124.095 324.074 124.53 324.044Z" fill="#556F99"/>
<path d="M138.74 274.455L62.9248 279.756C61.8229 279.834 60.9921 280.789 61.0692 281.891L61.3482 285.881C61.4253 286.983 62.381 287.814 63.4829 287.737L139.298 282.436C140.4 282.358 141.23 281.403 141.153 280.301L140.874 276.311C140.797 275.209 139.842 274.378 138.74 274.455Z" fill="#E8DCF7"/>
<path d="M134.286 275.267L59.4683 280.499C58.3664 280.576 57.5356 281.532 57.6127 282.634L57.8219 285.626C57.899 286.728 58.8547 287.559 59.9566 287.482L134.774 282.25C135.876 282.173 136.707 281.218 136.629 280.116L136.42 277.123C136.343 276.021 135.387 275.19 134.286 275.267Z" stroke="#6B6E74"/>
<path d="M131.377 291.009L68.53 295.404C68.2546 295.423 68.0469 295.662 68.0661 295.937C68.0854 296.213 68.3243 296.42 68.5998 296.401L131.446 292.007C131.722 291.987 131.929 291.748 131.91 291.473C131.891 291.197 131.652 290.99 131.377 291.009Z" fill="#6B6E74"/>
<path d="M99.9951 265.135C117.625 263.902 130.918 248.611 129.685 230.981C128.452 213.351 113.161 200.058 95.5307 201.291C77.9006 202.524 64.608 217.815 65.8408 235.445C67.0737 253.075 82.365 266.368 99.9951 265.135Z" fill="#E2E7EF"/>
<path d="M95.97 264.915C113.325 263.701 126.41 248.649 125.196 231.294C123.982 213.94 108.93 200.855 91.5754 202.068C74.2208 203.282 61.1359 218.334 62.3494 235.689C63.563 253.043 78.6154 266.128 95.97 264.915Z" stroke="#6B6E74"/>
<path d="M126.216 335.477L125.717 335.512C125.579 335.521 125.476 335.641 125.485 335.779L126.566 351.241C126.576 351.379 126.696 351.483 126.833 351.473L127.332 351.438C127.47 351.428 127.574 351.309 127.564 351.171L126.483 335.709C126.473 335.571 126.354 335.467 126.216 335.477Z" fill="#6B6E74"/>
<path d="M124.221 335.617L123.722 335.652C123.584 335.661 123.48 335.781 123.49 335.918L124.571 351.381C124.581 351.518 124.7 351.622 124.838 351.613L125.337 351.578C125.475 351.568 125.579 351.449 125.569 351.311L124.488 335.849C124.478 335.711 124.359 335.607 124.221 335.617Z" fill="#6B6E74"/>
<path d="M122.226 335.756L121.727 335.791C121.589 335.8 121.485 335.92 121.495 336.057L122.576 351.52C122.586 351.657 122.705 351.761 122.843 351.752L123.342 351.717C123.48 351.707 123.583 351.588 123.574 351.45L122.493 335.988C122.483 335.85 122.363 335.746 122.226 335.756Z" fill="#6B6E74"/>
<path d="M120.729 335.861L120.23 335.896C120.093 335.905 119.989 336.025 119.998 336.162L121.08 351.625C121.089 351.762 121.209 351.866 121.346 351.857L121.845 351.822C121.983 351.812 122.087 351.693 122.077 351.555L120.996 336.093C120.986 335.955 120.867 335.851 120.729 335.861Z" fill="#6B6E74"/>
<path d="M118.734 336L118.235 336.035C118.097 336.044 117.994 336.164 118.003 336.302L119.085 351.764C119.094 351.902 119.214 352.005 119.351 351.996L119.85 351.961C119.988 351.951 120.092 351.832 120.082 351.694L119.001 336.232C118.991 336.094 118.872 335.99 118.734 336Z" fill="#6B6E74"/>
<path d="M116.739 336.14L116.24 336.174C116.102 336.184 115.999 336.304 116.008 336.441L117.089 351.904C117.099 352.041 117.218 352.145 117.356 352.135L117.855 352.101C117.993 352.091 118.097 351.972 118.087 351.834L117.006 336.372C116.996 336.234 116.877 336.13 116.739 336.14Z" fill="#6B6E74"/>
<path d="M114.744 336.279L114.245 336.314C114.107 336.324 114.003 336.443 114.013 336.581L115.094 352.043C115.104 352.181 115.223 352.285 115.361 352.275L115.86 352.24C115.998 352.231 116.101 352.111 116.092 351.973L115.011 336.511C115.001 336.373 114.882 336.27 114.744 336.279Z" fill="#6B6E74"/>
<path d="M112.749 336.418L112.25 336.453C112.112 336.463 112.008 336.582 112.018 336.72L113.099 352.182C113.109 352.32 113.228 352.424 113.366 352.414L113.865 352.379C114.002 352.37 114.106 352.25 114.097 352.113L113.015 336.65C113.006 336.513 112.886 336.409 112.749 336.418Z" fill="#6B6E74"/>
<path d="M111.253 336.523L109.756 336.628C109.618 336.638 109.515 336.757 109.524 336.895L110.606 352.357C110.615 352.495 110.735 352.599 110.872 352.589L112.369 352.484C112.506 352.475 112.61 352.355 112.601 352.218L111.519 336.755C111.51 336.618 111.39 336.514 111.253 336.523Z" fill="#6B6E74"/>
<path d="M108.759 336.698L108.26 336.733C108.122 336.742 108.018 336.862 108.028 336.999L109.109 352.462C109.119 352.599 109.238 352.703 109.376 352.694L109.875 352.659C110.013 352.649 110.116 352.53 110.107 352.392L109.026 336.93C109.016 336.792 108.896 336.688 108.759 336.698Z" fill="#6B6E74"/>
<path d="M106.764 336.837L106.265 336.872C106.127 336.882 106.023 337.001 106.033 337.139L107.114 352.601C107.124 352.739 107.243 352.843 107.381 352.833L107.88 352.798C108.017 352.789 108.121 352.669 108.112 352.532L107.03 337.069C107.021 336.932 106.901 336.828 106.764 336.837Z" fill="#6B6E74"/>
<path d="M104.768 336.976L104.27 337.011C104.132 337.021 104.028 337.14 104.038 337.278L105.119 352.74C105.129 352.878 105.248 352.982 105.386 352.972L105.885 352.938C106.022 352.928 106.126 352.808 106.116 352.671L105.035 337.208C105.026 337.071 104.906 336.967 104.768 336.976Z" fill="#6B6E74"/>
<path d="M102.773 337.116L102.274 337.151C102.137 337.161 102.033 337.28 102.042 337.418L103.124 352.88C103.133 353.018 103.253 353.122 103.39 353.112L103.889 353.077C104.027 353.068 104.131 352.948 104.121 352.81L103.04 337.348C103.03 337.21 102.911 337.107 102.773 337.116Z" fill="#6B6E74"/>
<path d="M100.778 337.256L100.279 337.291C100.141 337.3 100.038 337.42 100.047 337.557L101.128 353.02C101.138 353.157 101.258 353.261 101.395 353.252L101.894 353.217C102.032 353.207 102.136 353.088 102.126 352.95L101.045 337.488C101.035 337.35 100.916 337.246 100.778 337.256Z" fill="#6B6E74"/>
<path d="M98.7828 337.395L98.2841 337.43C98.1463 337.439 98.0425 337.559 98.0521 337.697L99.1333 353.159C99.143 353.297 99.2624 353.4 99.4002 353.391L99.8989 353.356C100.037 353.346 100.141 353.227 100.131 353.089L99.0497 337.627C99.04 337.489 98.9206 337.385 98.7828 337.395Z" fill="#6B6E74"/>
<path d="M96.7877 337.535L96.2889 337.569C96.1512 337.579 96.0474 337.699 96.057 337.836L97.1382 353.299C97.1478 353.436 97.2673 353.54 97.405 353.531L97.9038 353.496C98.0416 353.486 98.1454 353.367 98.1358 353.229L97.0546 337.767C97.0449 337.629 96.9255 337.525 96.7877 337.535Z" fill="#6B6E74"/>
<path d="M94.7926 337.674L94.2938 337.709C94.1561 337.719 94.0522 337.838 94.0619 337.976L95.1431 353.438C95.1527 353.576 95.2722 353.68 95.4099 353.67L95.9087 353.635C96.0464 353.626 96.1503 353.506 96.1407 353.368L95.0594 337.906C95.0498 337.768 94.9303 337.665 94.7926 337.674Z" fill="#6B6E74"/>
<path d="M92.7975 337.814L92.2987 337.849C92.161 337.858 92.0571 337.978 92.0668 338.116L93.148 353.578C93.1576 353.716 93.2771 353.819 93.4148 353.81L93.9136 353.775C94.0513 353.765 94.1552 353.646 94.1455 353.508L93.0643 338.046C93.0547 337.908 92.9352 337.804 92.7975 337.814Z" fill="#6B6E74"/>
<path d="M90.8024 337.953L90.3036 337.988C90.1659 337.998 90.062 338.117 90.0716 338.255L91.1529 353.717C91.1625 353.855 91.282 353.959 91.4197 353.949L91.9185 353.914C92.0562 353.904 92.1601 353.785 92.1504 353.647L91.0692 338.185C91.0596 338.047 90.9401 337.943 90.8024 337.953Z" fill="#6B6E74"/>
<path d="M88.3085 338.128L87.8097 338.163C87.672 338.172 87.5681 338.292 87.5777 338.43L88.659 353.892C88.6686 354.03 88.7881 354.133 88.9258 354.124L89.4246 354.089C89.5623 354.079 89.6662 353.96 89.6565 353.822L88.5753 338.36C88.5657 338.222 88.4462 338.118 88.3085 338.128Z" fill="#6B6E74"/>
<path d="M86.8121 338.232L86.3134 338.267C86.1756 338.277 86.0718 338.396 86.0814 338.534L87.1626 353.996C87.1723 354.134 87.2917 354.238 87.4295 354.228L87.9282 354.193C88.066 354.184 88.1698 354.064 88.1602 353.927L87.079 338.464C87.0693 338.327 86.9499 338.223 86.8121 338.232Z" fill="#6B6E74"/>
<path d="M84.817 338.372L84.3182 338.407C84.1805 338.417 84.0767 338.536 84.0863 338.674L85.1675 354.136C85.1771 354.274 85.2966 354.378 85.4343 354.368L85.9331 354.333C86.0709 354.323 86.1747 354.204 86.1651 354.066L85.0839 338.604C85.0742 338.466 84.9548 338.362 84.817 338.372Z" fill="#6B6E74"/>
<path d="M82.8219 338.511L82.3231 338.546C82.1854 338.556 82.0815 338.675 82.0912 338.813L83.1724 354.275C83.182 354.413 83.3015 354.517 83.4392 354.507L83.938 354.472C84.0757 354.463 84.1796 354.343 84.17 354.205L83.0887 338.743C83.0791 338.605 82.9596 338.502 82.8219 338.511Z" fill="#6B6E74"/>
<path d="M80.8268 338.651L80.328 338.686C80.1903 338.695 80.0864 338.815 80.0961 338.953L81.1773 354.415C81.1869 354.552 81.3064 354.656 81.4441 354.647L81.9429 354.612C82.0806 354.602 82.1845 354.483 82.1748 354.345L81.0936 338.883C81.084 338.745 80.9645 338.641 80.8268 338.651Z" fill="#6B6E74"/>
<path d="M88.2459 243.511C88.3088 243.529 88.3697 243.553 88.4278 243.583L88.5127 243.632L94.0507 247.207C94.1456 247.268 94.2162 247.359 94.2524 247.464L94.2729 247.546L95.1181 252.679L95.8672 251.53L95.6482 248.389C95.6418 248.297 95.6608 248.206 95.7024 248.125L95.7513 248.048L99.4994 243.197C99.837 242.76 100.465 242.679 100.902 243.017C101.019 243.107 101.115 243.223 101.182 243.354L101.226 243.455L102.444 246.683C102.52 246.885 102.529 247.105 102.47 247.31L102.427 247.431L99.995 253.091C99.7769 253.598 99.1888 253.833 98.6814 253.615C98.3756 253.483 98.1579 253.21 98.0949 252.888L98.0787 252.766L97.9577 251.035C97.9384 250.759 98.1461 250.52 98.4216 250.501C98.6665 250.484 98.8825 250.646 98.941 250.876L98.9553 250.965L99.0763 252.696L101.509 247.036L100.291 243.808L96.6584 248.509L96.8771 251.627C96.8828 251.709 96.8684 251.79 96.8358 251.864L96.7971 251.935L95.9556 253.225C95.8023 253.46 95.5574 253.62 95.2806 253.666C94.7745 253.749 94.2948 253.437 94.157 252.955L94.1314 252.841L93.3216 247.926L87.9703 244.472L87.2036 247.147C87.1471 247.344 87.0317 247.518 86.8743 247.647L86.7749 247.718L76.3427 254.282L74.8797 257.911C74.7765 258.167 74.4852 258.291 74.229 258.188C74.0014 258.096 73.8782 257.855 73.9261 257.623L73.9523 257.537L75.4152 253.908C75.4782 253.752 75.5792 253.615 75.7083 253.509L75.8102 253.435L86.2424 246.872L87.009 244.197C87.1612 243.666 87.715 243.359 88.2459 243.511ZM103.496 246.682L103.582 246.71L112.944 250.691C113.582 250.963 114.148 251.377 114.598 251.902L114.761 252.104L116.588 254.5C116.755 254.719 116.713 255.033 116.493 255.2C116.298 255.349 116.029 255.332 115.854 255.172L115.793 255.106L113.966 252.71C113.644 252.288 113.231 251.945 112.759 251.707L112.553 251.611L103.19 247.63C102.936 247.522 102.818 247.228 102.926 246.974C103.022 246.748 103.264 246.63 103.496 246.682ZM88.3215 247.923L88.3739 247.997L91.3248 253.03L91.1622 250.697C91.1579 250.635 91.1652 250.573 91.1835 250.514L91.2191 250.428L92.2976 248.392C92.4269 248.148 92.7295 248.055 92.9735 248.184C93.1904 248.299 93.288 248.551 93.2163 248.777L93.1813 248.86L92.1691 250.77L92.4718 255.089C92.5065 255.585 91.8887 255.806 91.5931 255.45L91.5416 255.377L87.5112 248.503C87.3715 248.264 87.4514 247.958 87.6896 247.818C87.9014 247.694 88.167 247.743 88.3215 247.923ZM90.4066 218.656L90.8433 219.398C92.641 222.41 94.1633 224.371 95.3833 225.271C96.5755 226.149 98.5514 226.797 101.303 227.192C101.956 227.285 102.465 227.792 102.57 228.433L102.587 228.572L102.642 229.366C102.647 229.435 102.673 229.502 102.717 229.556C102.818 229.681 102.99 229.715 103.128 229.648L103.195 229.606L103.637 229.248C103.692 229.203 103.75 229.163 103.811 229.126C104.479 228.726 105.335 228.907 105.788 229.522L105.868 229.643L106.157 230.124C106.752 231.119 106.874 232.322 106.497 233.41L106.416 233.626L106.385 233.7C105.952 234.748 105.141 235.591 104.117 236.064L103.828 236.187L103.674 236.425C100.914 240.617 97.9619 242.907 94.8044 243.243L94.5253 243.268C91.1721 243.502 87.6882 241.542 84.0655 237.445C83.8826 237.238 83.902 236.922 84.1088 236.739C84.3157 236.556 84.6317 236.576 84.8146 236.783C88.2515 240.669 91.4678 242.479 94.4555 242.27C97.4405 242.062 100.318 239.829 103.074 235.512C103.116 235.446 103.173 235.391 103.24 235.352L103.31 235.317L103.524 235.232C104.334 234.908 104.991 234.295 105.372 233.516L105.491 233.244C105.816 232.459 105.78 231.575 105.401 230.823L105.299 230.638L105.01 230.156C104.868 229.919 104.561 229.842 104.324 229.984L104.267 230.025L103.824 230.383C103.249 230.849 102.405 230.76 101.94 230.185C101.801 230.014 101.708 229.812 101.666 229.598L101.645 229.435L101.589 228.642C101.573 228.407 101.394 228.215 101.161 228.181C98.2607 227.765 96.1395 227.07 94.79 226.076C93.3325 225.001 91.5943 222.701 89.5413 219.157C89.4029 218.918 89.4844 218.612 89.7233 218.473C89.9623 218.335 90.2682 218.417 90.4066 218.656ZM96.7431 236.547C96.9255 236.754 96.9053 237.07 96.698 237.252C95.5642 238.25 94.6746 238.78 93.9634 238.83C93.254 238.88 92.29 238.48 91.0068 237.653C90.7747 237.503 90.7078 237.194 90.8574 236.962C91.007 236.73 91.3165 236.663 91.5486 236.812C92.6611 237.53 93.4643 237.862 93.8937 237.832C94.3213 237.803 95.0579 237.363 96.0374 236.501C96.2447 236.319 96.5606 236.339 96.7431 236.547ZM84.0338 215.311C84.2031 215.529 84.1636 215.843 83.9454 216.012C82.0827 217.459 80.9778 218.591 80.6467 219.352L80.3779 219.975C79.7128 221.577 79.5489 222.953 80.0549 224.99C80.5266 226.889 81.1414 228.731 81.8995 230.516C82.3929 230.222 83.0191 230.18 83.5666 230.459C83.6678 230.51 83.7638 230.572 83.8529 230.642C83.9228 230.697 84.0242 230.686 84.0794 230.616C84.0959 230.595 84.1069 230.57 84.1115 230.544L84.1136 230.505L84.0972 230.269C84.0166 229.117 84.301 227.971 84.9063 226.992L85.0517 226.769C85.4635 226.17 85.7547 225.591 85.9274 225.033C86.217 224.097 86.3233 222.739 86.2374 220.97C86.224 220.694 86.4367 220.46 86.7126 220.446C86.9884 220.433 87.2228 220.646 87.2362 220.922C87.3273 222.797 87.2125 224.263 86.8827 225.329C86.6786 225.989 86.3422 226.658 85.8757 227.336C85.3471 228.105 85.0717 229.017 85.0842 229.946L85.0947 230.199L85.1112 230.435C85.1314 230.723 85.0433 231.008 84.8643 231.235C84.4954 231.703 83.8394 231.81 83.3445 231.505L83.2334 231.427C83.1959 231.398 83.1555 231.372 83.113 231.35C82.7882 231.185 82.3976 231.287 82.1927 231.576L82.137 231.668L82.023 231.892C81.6689 232.587 81.758 233.421 82.2378 234.024L82.3466 234.15L83.8827 235.781C84.072 235.982 84.0625 236.298 83.8615 236.487C83.6828 236.656 83.413 236.667 83.2222 236.526L83.1547 236.466L81.6186 234.835C80.8036 233.97 80.5846 232.709 81.0438 231.627L81.1318 231.438L81.1982 231.307C81.1481 231.261 81.1066 231.204 81.0779 231.137C80.2536 229.232 79.5891 227.263 79.0844 225.232C78.5522 223.089 78.6942 221.548 79.3418 219.872L79.4544 219.592C79.5257 219.42 79.5965 219.257 79.7296 218.953C80.1479 217.991 81.3434 216.767 83.3322 215.223C83.5503 215.053 83.8644 215.093 84.0338 215.311ZM93.9162 232.209L93.9602 232.287L94.5425 233.593C94.6194 233.765 94.5919 233.963 94.4777 234.107L94.4135 234.174L93.7748 234.728C93.5662 234.909 93.2504 234.887 93.0695 234.678C92.9086 234.493 92.9085 234.223 93.0569 234.038L93.1195 233.973L93.4779 233.662L93.0469 232.695C92.9469 232.471 93.0253 232.212 93.2211 232.078L93.2999 232.034C93.5241 231.934 93.7826 232.013 93.9162 232.209ZM104.39 231.047C104.628 231.106 104.784 231.326 104.769 231.563L104.755 231.652L104.234 233.751C104.168 234.019 103.897 234.182 103.629 234.116C103.39 234.056 103.235 233.836 103.25 233.599L103.264 233.51L103.784 231.411C103.851 231.143 104.122 230.98 104.39 231.047ZM97.4876 229.331C98.0385 229.293 98.5163 229.708 98.5549 230.259C98.5934 230.81 98.178 231.288 97.6271 231.326C97.0761 231.365 96.5983 230.95 96.5597 230.399C96.5212 229.848 96.9366 229.37 97.4876 229.331ZM89.507 229.889C90.058 229.851 90.5358 230.266 90.5744 230.817C90.6129 231.368 90.1975 231.846 89.6466 231.884C89.0956 231.923 88.6178 231.508 88.5792 230.957C88.5407 230.406 88.9561 229.928 89.507 229.889ZM96.4028 211.356C101.15 212.933 104.305 216.244 105.342 219.554C106.405 222.949 106.736 225.654 106.319 227.686C106.264 227.956 106 228.13 105.729 228.075C105.459 228.019 105.284 227.755 105.34 227.484C105.717 225.649 105.405 223.1 104.388 219.853C103.445 216.845 100.524 213.779 96.0875 212.305C92.7307 211.19 89.4373 211.5 87.5433 212.441C86.8341 212.793 85.8947 213.607 84.749 214.879C84.5641 215.085 84.248 215.101 84.0428 214.916C83.8376 214.731 83.8211 214.415 84.006 214.21C85.2288 212.852 86.2517 211.966 87.0985 211.545C89.2217 210.491 92.7869 210.155 96.4028 211.356ZM90.6032 225.616C90.8734 225.674 91.046 225.939 90.9887 226.209C90.9315 226.479 90.6661 226.652 90.396 226.595C89.5199 226.409 88.9031 226.383 88.5762 226.493C88.2756 226.593 87.9437 226.914 87.6031 227.476C87.4601 227.713 87.1527 227.788 86.9165 227.645C86.6802 227.502 86.6046 227.195 86.7476 226.959C87.1996 226.212 87.6959 225.733 88.2591 225.544C88.796 225.365 89.5672 225.397 90.6032 225.616ZM88.2158 218.529L88.306 218.525C88.5819 218.537 88.7958 218.77 88.7837 219.046C88.7226 220.45 88.8932 221.571 89.2846 222.409C89.671 223.235 90.358 223.967 91.3577 224.604C91.5907 224.752 91.6593 225.061 91.5109 225.294C91.3626 225.527 91.0535 225.596 90.8206 225.447C89.669 224.714 88.8509 223.842 88.3786 222.832C87.9114 221.832 87.717 220.556 87.7847 219.003C87.7954 218.757 87.981 218.561 88.2158 218.529Z" fill="#6B6E74"/>
<path d="M82.8328 231.358L83.4925 232.652" stroke="#6B6E74" stroke-linecap="round" stroke-linejoin="round"/>
<path d="M260.189 183.217L271.162 183.984C272.264 184.061 273.095 185.017 273.018 186.119C272.941 187.221 271.985 188.052 270.883 187.975L242.951 186.021C241.85 185.944 241.019 184.989 241.096 183.887C241.173 182.785 242.129 181.954 243.23 182.031L257.534 183.031C257.589 183.035 257.63 183.083 257.627 183.138C257.625 183.154 257.621 183.169 257.613 183.182L257.127 184.005L243.161 183.029C242.61 182.99 242.132 183.406 242.093 183.956C242.058 184.468 242.413 184.917 242.905 185.009L243.021 185.024L270.953 186.977C271.504 187.016 271.982 186.6 272.02 186.049C272.056 185.538 271.7 185.089 271.208 184.997L271.093 184.982L259.954 184.203C259.899 184.199 259.857 184.151 259.861 184.096C259.862 184.087 259.864 184.077 259.868 184.068L260.189 183.217Z" fill="#6B6E74"/>
<path d="M343.545 181.026C345.749 181.181 347.411 183.092 347.256 185.296L333.305 384.809C333.151 387.012 331.24 388.674 329.036 388.52L157.455 376.522C155.251 376.368 153.589 374.456 153.744 372.252L154.045 367.934L156.04 368.074L155.739 372.392C155.665 373.444 156.419 374.362 157.446 374.511L157.594 374.527L329.175 386.525C330.227 386.598 331.146 385.845 331.294 384.818L331.31 384.669L345.261 185.156C345.335 184.104 344.581 183.186 343.554 183.037L343.406 183.022L264.158 177.48C263.883 177.461 263.675 177.222 263.694 176.946C263.7 176.869 263.723 176.794 263.763 176.727L264.488 175.498L343.545 181.026ZM183.471 169.832L260.19 175.198C260.465 175.217 260.673 175.456 260.654 175.731C260.648 175.809 260.625 175.884 260.585 175.951L259.86 177.179L183.613 171.847L183.471 169.832ZM180.216 169.605L181.456 169.691L181.598 171.706L180.076 171.6L180.216 169.605Z" fill="#6B6E74"/>
<path d="M222.097 331.496L222.9 331.552L220.141 337.8L219.405 337.749L217.556 331.179L218.345 331.234L219.528 335.484C219.664 335.972 219.766 336.445 219.834 336.902C219.972 336.436 220.143 335.973 220.345 335.515L222.097 331.496ZM223.955 338.067L223.227 338.016L223.563 333.211L224.291 333.262L223.955 338.067ZM223.593 331.905C223.605 331.738 223.654 331.62 223.741 331.55C223.829 331.476 223.934 331.444 224.056 331.453C224.173 331.461 224.271 331.507 224.351 331.592C224.43 331.677 224.464 331.801 224.452 331.965C224.441 332.129 224.39 332.248 224.299 332.324C224.209 332.397 224.106 332.43 223.989 332.422C223.866 332.413 223.766 332.366 223.69 332.282C223.614 332.194 223.582 332.069 223.593 331.905ZM226.226 338.226L225.498 338.175L225.975 331.353L226.703 331.404L226.226 338.226ZM228.497 338.384L227.769 338.333L228.246 331.512L228.974 331.563L228.497 338.384ZM232.995 338.699L232.898 338.005L232.863 338.002C232.602 338.287 232.348 338.475 232.101 338.566C231.857 338.655 231.556 338.686 231.2 338.661C230.723 338.628 230.358 338.479 230.103 338.215C229.852 337.95 229.742 337.592 229.773 337.139C229.841 336.169 230.653 335.714 232.208 335.776L233.025 335.807L233.046 335.509C233.072 335.132 233.01 334.848 232.859 334.659C232.71 334.466 232.458 334.357 232.102 334.332C231.701 334.304 231.24 334.396 230.717 334.606L230.532 334.033C230.778 333.921 231.044 333.839 231.329 333.785C231.618 333.732 231.904 333.715 232.187 333.735C232.76 333.775 233.175 333.932 233.432 334.205C233.692 334.479 233.802 334.896 233.763 335.457L233.534 338.737L232.995 338.699ZM231.386 338.071C231.839 338.103 232.203 338.003 232.478 337.773C232.755 337.543 232.91 337.204 232.941 336.757L232.971 336.323L232.241 336.303C231.661 336.283 231.237 336.344 230.969 336.487C230.703 336.627 230.559 336.865 230.535 337.201C230.517 337.464 230.582 337.67 230.73 337.818C230.881 337.967 231.1 338.051 231.386 338.071ZM239.306 334.312L239.273 334.772L238.376 334.815C238.451 334.923 238.515 335.063 238.567 335.234C238.62 335.402 238.639 335.59 238.625 335.797C238.592 336.268 238.405 336.632 238.064 336.89C237.723 337.148 237.271 337.258 236.71 337.219C236.567 337.209 236.434 337.188 236.309 337.155C235.988 337.297 235.819 337.493 235.802 337.741C235.792 337.872 235.84 337.974 235.943 338.046C236.047 338.115 236.231 338.159 236.494 338.177L237.344 338.236C237.864 338.273 238.255 338.41 238.518 338.649C238.783 338.888 238.901 339.216 238.872 339.634C238.835 340.166 238.593 340.556 238.147 340.804C237.701 341.054 237.068 341.151 236.25 341.094C235.622 341.05 235.145 340.899 234.819 340.641C234.496 340.384 234.35 340.042 234.38 339.615C234.4 339.323 234.511 339.077 234.713 338.876C234.915 338.676 235.188 338.55 235.533 338.498C235.414 338.433 235.316 338.34 235.24 338.217C235.166 338.094 235.135 337.956 235.145 337.801C235.158 337.625 235.215 337.475 235.318 337.35C235.421 337.225 235.577 337.109 235.787 337C235.546 336.88 235.355 336.692 235.214 336.436C235.077 336.179 235.019 335.893 235.041 335.578C235.078 335.052 235.264 334.658 235.599 334.396C235.935 334.132 236.392 334.02 236.971 334.061C237.222 334.078 237.447 334.123 237.644 334.196L239.306 334.312ZM235.082 339.655C235.064 339.915 235.159 340.12 235.369 340.27C235.579 340.42 235.888 340.509 236.298 340.538C236.908 340.58 237.366 340.52 237.672 340.356C237.979 340.196 238.144 339.959 238.166 339.646C238.184 339.386 238.117 339.199 237.963 339.086C237.809 338.975 237.51 338.905 237.066 338.873L236.194 338.812C235.863 338.789 235.601 338.85 235.406 338.995C235.21 339.14 235.102 339.36 235.082 339.655ZM235.761 335.61C235.738 335.946 235.815 336.207 235.993 336.393C236.171 336.579 236.429 336.684 236.768 336.707C237.478 336.757 237.858 336.437 237.906 335.747C237.956 335.025 237.622 334.639 236.903 334.589C236.561 334.565 236.292 334.639 236.095 334.81C235.898 334.981 235.786 335.248 235.761 335.61ZM241.98 339.415C241.269 339.366 240.723 339.11 240.342 338.649C239.963 338.188 239.8 337.573 239.854 336.804C239.908 336.03 240.141 335.428 240.553 334.998C240.968 334.569 241.496 334.377 242.139 334.422C242.741 334.464 243.204 334.696 243.527 335.118C243.85 335.537 243.989 336.071 243.943 336.72L243.911 337.18L240.601 336.949C240.577 337.514 240.688 337.952 240.937 338.263C241.188 338.574 241.559 338.747 242.05 338.781C242.568 338.818 243.087 338.745 243.607 338.564L243.562 339.213C243.297 339.306 243.048 339.368 242.813 339.399C242.582 339.432 242.304 339.438 241.98 339.415ZM242.088 335.031C241.702 335.004 241.385 335.108 241.137 335.343C240.891 335.579 240.732 335.917 240.66 336.358L243.172 336.534C243.204 336.075 243.127 335.717 242.939 335.46C242.752 335.201 242.468 335.057 242.088 335.031ZM250.592 334.066C249.887 334.017 249.314 334.213 248.872 334.655C248.433 335.094 248.185 335.721 248.128 336.537C248.069 337.376 248.22 338.038 248.579 338.524C248.942 339.008 249.487 339.275 250.215 339.326C250.662 339.357 251.178 339.313 251.762 339.192L251.716 339.845C251.26 339.981 250.706 340.026 250.055 339.98C249.111 339.914 248.402 339.577 247.927 338.968C247.456 338.359 247.257 337.527 247.331 336.472C247.377 335.812 247.54 335.242 247.82 334.762C248.104 334.283 248.487 333.925 248.97 333.688C249.457 333.452 250.016 333.356 250.647 333.4C251.319 333.447 251.898 333.611 252.383 333.892L252.023 334.51C251.554 334.248 251.077 334.1 250.592 334.066ZM255.528 335.358C255.741 335.373 255.931 335.404 256.098 335.451L255.95 336.119C255.754 336.061 255.581 336.027 255.429 336.017C255.04 335.989 254.696 336.124 254.396 336.42C254.099 336.717 253.934 337.1 253.902 337.571L253.721 340.148L252.994 340.097L253.33 335.293L253.93 335.335L253.951 336.23L253.986 336.233C254.186 335.933 254.418 335.707 254.681 335.555C254.944 335.403 255.227 335.337 255.528 335.358ZM258.682 340.583C257.972 340.534 257.426 340.278 257.044 339.817C256.665 339.356 256.502 338.741 256.556 337.972C256.61 337.198 256.843 336.596 257.255 336.166C257.67 335.737 258.199 335.545 258.842 335.59C259.444 335.632 259.906 335.864 260.229 336.286C260.552 336.705 260.691 337.239 260.646 337.888L260.614 338.348L257.304 338.117C257.279 338.682 257.391 339.12 257.639 339.431C257.891 339.742 258.262 339.915 258.753 339.949C259.27 339.986 259.789 339.913 260.31 339.732L260.264 340.381C259.999 340.474 259.75 340.536 259.516 340.567C259.284 340.6 259.006 340.606 258.682 340.583ZM258.79 336.199C258.405 336.172 258.087 336.276 257.839 336.511C257.593 336.746 257.435 337.085 257.363 337.526L259.875 337.702C259.907 337.243 259.829 336.885 259.641 336.628C259.454 336.368 259.17 336.225 258.79 336.199ZM263.723 340.936C263.013 340.886 262.467 340.631 262.085 340.169C261.706 339.708 261.544 339.093 261.598 338.325C261.652 337.55 261.885 336.948 262.297 336.519C262.711 336.09 263.24 335.898 263.883 335.943C264.485 335.985 264.948 336.217 265.271 336.639C265.594 337.058 265.733 337.592 265.687 338.24L265.655 338.701L262.345 338.469C262.32 339.034 262.432 339.472 262.681 339.784C262.932 340.095 263.303 340.268 263.794 340.302C264.311 340.338 264.83 340.266 265.351 340.085L265.306 340.734C265.041 340.827 264.791 340.889 264.557 340.919C264.326 340.953 264.048 340.958 263.723 340.936ZM263.832 336.551C263.446 336.524 263.129 336.628 262.88 336.864C262.635 337.099 262.476 337.437 262.404 337.879L264.916 338.054C264.948 337.596 264.87 337.238 264.683 336.981C264.495 336.721 264.212 336.578 263.832 336.551ZM270.057 340.643L270.017 340.64C269.647 341.105 269.127 341.314 268.458 341.267C267.83 341.223 267.355 340.974 267.034 340.52C266.717 340.066 266.585 339.443 266.641 338.651C266.696 337.859 266.915 337.256 267.296 336.842C267.677 336.428 268.181 336.243 268.806 336.287C269.458 336.332 269.941 336.604 270.256 337.102L270.313 337.106L270.306 336.757L270.312 336.419L270.449 334.463L271.177 334.514L270.7 341.335L270.108 341.294L270.057 340.643ZM268.593 340.664C269.089 340.699 269.458 340.589 269.699 340.336C269.943 340.08 270.086 339.651 270.128 339.049L270.139 338.895C270.187 338.214 270.107 337.721 269.899 337.416C269.694 337.108 269.344 336.937 268.847 336.902C268.42 336.872 268.081 337.016 267.83 337.333C267.582 337.648 267.437 338.107 267.394 338.712C267.351 339.326 267.431 339.797 267.635 340.126C267.838 340.454 268.157 340.633 268.593 340.664Z" fill="#556F99"/>
<path d="M289.565 293.535L213.75 288.234C212.649 288.157 211.693 288.987 211.616 290.089L211.337 294.08C211.26 295.182 212.091 296.137 213.192 296.214L289.007 301.516C290.109 301.593 291.065 300.762 291.142 299.66L291.421 295.67C291.498 294.568 290.667 293.612 289.565 293.535Z" fill="#FEF1D8"/>
<path d="M285.041 293.72L210.224 288.488C209.122 288.411 208.167 289.242 208.089 290.344L207.88 293.336C207.803 294.438 208.634 295.394 209.736 295.471L284.553 300.703C285.655 300.78 286.611 299.949 286.688 298.847L286.897 295.855C286.974 294.753 286.143 293.797 285.041 293.72Z" stroke="#6B6E74"/>
<path d="M279.97 308.903L217.123 304.509C216.848 304.489 216.609 304.697 216.59 304.972C216.57 305.248 216.778 305.487 217.054 305.506L279.9 309.901C280.176 309.92 280.414 309.712 280.434 309.437C280.453 309.161 280.245 308.922 279.97 308.903Z" fill="#6B6E74"/>
<path d="M252.495 278.914C270.125 280.147 285.417 266.854 286.649 249.224C287.882 231.594 274.59 216.302 256.96 215.07C239.33 213.837 224.038 227.129 222.805 244.759C221.573 262.39 234.865 277.681 252.495 278.914Z" fill="#FCDED8"/>
<path d="M248.54 278.136C265.894 279.349 280.947 266.264 282.16 248.91C283.374 231.555 270.289 216.503 252.934 215.289C235.58 214.076 220.527 227.16 219.314 244.515C218.1 261.87 231.185 276.922 248.54 278.136Z" stroke="#6B6E74"/>
<path d="M268.671 352.22L268.172 352.185C268.035 352.176 267.915 352.28 267.905 352.417L266.824 367.88C266.815 368.017 266.918 368.137 267.056 368.146L267.555 368.181C267.693 368.191 267.812 368.087 267.822 367.949L268.903 352.487C268.913 352.349 268.809 352.23 268.671 352.22Z" fill="#6B6E74"/>
<path d="M266.676 352.081L266.177 352.046C266.039 352.036 265.92 352.14 265.91 352.278L264.829 367.74C264.819 367.878 264.923 367.997 265.061 368.007L265.56 368.042C265.698 368.051 265.817 367.947 265.827 367.81L266.908 352.347C266.917 352.21 266.814 352.09 266.676 352.081Z" fill="#6B6E74"/>
<path d="M264.681 351.941L264.182 351.907C264.044 351.897 263.925 352.001 263.915 352.139L262.834 367.601C262.824 367.739 262.928 367.858 263.066 367.868L263.565 367.903C263.702 367.912 263.822 367.808 263.832 367.671L264.913 352.208C264.922 352.071 264.819 351.951 264.681 351.941Z" fill="#6B6E74"/>
<path d="M263.184 351.836L262.685 351.802C262.548 351.792 262.428 351.896 262.419 352.034L261.337 367.496C261.328 367.634 261.432 367.753 261.569 367.763L262.068 367.798C262.206 367.807 262.325 367.703 262.335 367.566L263.416 352.103C263.426 351.966 263.322 351.846 263.184 351.836Z" fill="#6B6E74"/>
<path d="M261.189 351.697L260.69 351.662C260.553 351.653 260.433 351.757 260.423 351.894L259.342 367.357C259.333 367.494 259.436 367.614 259.574 367.623L260.073 367.658C260.211 367.668 260.33 367.564 260.34 367.426L261.421 351.964C261.431 351.826 261.327 351.707 261.189 351.697Z" fill="#6B6E74"/>
<path d="M259.194 351.558L258.695 351.523C258.557 351.513 258.438 351.617 258.428 351.755L257.347 367.217C257.338 367.355 257.441 367.474 257.579 367.484L258.078 367.519C258.216 367.528 258.335 367.424 258.345 367.287L259.426 351.825C259.436 351.687 259.332 351.567 259.194 351.558Z" fill="#6B6E74"/>
<path d="M257.199 351.418L256.7 351.383C256.562 351.374 256.443 351.477 256.433 351.615L255.352 367.077C255.342 367.215 255.446 367.335 255.584 367.344L256.083 367.379C256.22 367.389 256.34 367.285 256.35 367.147L257.431 351.685C257.44 351.547 257.337 351.428 257.199 351.418Z" fill="#6B6E74"/>
<path d="M255.204 351.279L254.705 351.244C254.567 351.234 254.448 351.338 254.438 351.476L253.357 366.938C253.347 367.076 253.451 367.195 253.589 367.205L254.088 367.24C254.225 367.25 254.345 367.146 254.354 367.008L255.436 351.546C255.445 351.408 255.341 351.289 255.204 351.279Z" fill="#6B6E74"/>
<path d="M253.708 351.174L252.211 351.069C252.074 351.06 251.954 351.163 251.944 351.301L250.863 366.763C250.854 366.901 250.957 367.021 251.095 367.03L252.592 367.135C252.729 367.144 252.849 367.041 252.858 366.903L253.94 351.441C253.949 351.303 253.845 351.183 253.708 351.174Z" fill="#6B6E74"/>
<path d="M251.214 351L250.715 350.965C250.577 350.955 250.458 351.059 250.448 351.197L249.367 366.659C249.357 366.797 249.461 366.916 249.599 366.926L250.097 366.961C250.235 366.97 250.355 366.866 250.364 366.729L251.445 351.266C251.455 351.129 251.351 351.009 251.214 351Z" fill="#6B6E74"/>
<path d="M249.218 350.86L248.72 350.825C248.582 350.815 248.462 350.919 248.453 351.057L247.372 366.519C247.362 366.657 247.466 366.776 247.604 366.786L248.102 366.821C248.24 366.831 248.359 366.727 248.369 366.589L249.45 351.127C249.46 350.989 249.356 350.87 249.218 350.86Z" fill="#6B6E74"/>
<path d="M247.223 350.721L246.724 350.686C246.587 350.676 246.467 350.78 246.458 350.918L245.376 366.38C245.367 366.518 245.471 366.637 245.608 366.647L246.107 366.682C246.245 366.691 246.364 366.588 246.374 366.45L247.455 350.988C247.465 350.85 247.361 350.73 247.223 350.721Z" fill="#6B6E74"/>
<path d="M245.228 350.581L244.729 350.546C244.592 350.537 244.472 350.64 244.463 350.778L243.381 366.24C243.372 366.378 243.476 366.498 243.613 366.507L244.112 366.542C244.25 366.552 244.369 366.448 244.379 366.31L245.46 350.848C245.47 350.71 245.366 350.591 245.228 350.581Z" fill="#6B6E74"/>
<path d="M243.233 350.441L242.734 350.407C242.597 350.397 242.477 350.501 242.467 350.639L241.386 366.101C241.377 366.239 241.48 366.358 241.618 366.368L242.117 366.403C242.255 366.412 242.374 366.308 242.384 366.171L243.465 350.708C243.475 350.571 243.371 350.451 243.233 350.441Z" fill="#6B6E74"/>
<path d="M241.238 350.302L240.739 350.267C240.601 350.258 240.482 350.362 240.472 350.499L239.391 365.962C239.381 366.099 239.485 366.219 239.623 366.228L240.122 366.263C240.26 366.273 240.379 366.169 240.389 366.031L241.47 350.569C241.48 350.431 241.376 350.312 241.238 350.302Z" fill="#6B6E74"/>
<path d="M239.243 350.163L238.744 350.128C238.606 350.118 238.487 350.222 238.477 350.36L237.396 365.822C237.386 365.96 237.49 366.079 237.628 366.089L238.127 366.124C238.264 366.133 238.384 366.029 238.394 365.892L239.475 350.429C239.484 350.292 239.381 350.172 239.243 350.163Z" fill="#6B6E74"/>
<path d="M237.248 350.023L236.749 349.988C236.611 349.979 236.492 350.082 236.482 350.22L235.401 365.682C235.391 365.82 235.495 365.94 235.633 365.949L236.132 365.984C236.269 365.994 236.389 365.89 236.398 365.752L237.48 350.29C237.489 350.152 237.385 350.033 237.248 350.023Z" fill="#6B6E74"/>
<path d="M235.253 349.883L234.754 349.848C234.616 349.839 234.497 349.943 234.487 350.08L233.406 365.543C233.396 365.68 233.5 365.8 233.638 365.81L234.136 365.844C234.274 365.854 234.394 365.75 234.403 365.612L235.485 350.15C235.494 350.012 235.39 349.893 235.253 349.883Z" fill="#6B6E74"/>
<path d="M233.257 349.744L232.759 349.709C232.621 349.7 232.501 349.804 232.492 349.941L231.411 365.404C231.401 365.541 231.505 365.661 231.643 365.67L232.141 365.705C232.279 365.715 232.399 365.611 232.408 365.473L233.489 350.011C233.499 349.873 233.395 349.754 233.257 349.744Z" fill="#6B6E74"/>
<path d="M230.764 349.569L230.265 349.535C230.127 349.525 230.008 349.629 229.998 349.766L228.917 365.229C228.907 365.366 229.011 365.486 229.149 365.496L229.648 365.53C229.785 365.54 229.905 365.436 229.915 365.298L230.996 349.836C231.005 349.699 230.902 349.579 230.764 349.569Z" fill="#6B6E74"/>
<path d="M229.267 349.465L228.768 349.43C228.631 349.42 228.511 349.524 228.502 349.662L227.42 365.124C227.411 365.262 227.515 365.381 227.652 365.391L228.151 365.426C228.289 365.436 228.408 365.332 228.418 365.194L229.499 349.732C229.509 349.594 229.405 349.475 229.267 349.465Z" fill="#6B6E74"/>
<path d="M227.272 349.325L226.773 349.29C226.636 349.281 226.516 349.385 226.506 349.522L225.425 364.985C225.416 365.122 225.519 365.242 225.657 365.251L226.156 365.286C226.294 365.296 226.413 365.192 226.423 365.054L227.504 349.592C227.514 349.454 227.41 349.335 227.272 349.325Z" fill="#6B6E74"/>
<path d="M225.277 349.186L224.778 349.151C224.64 349.142 224.521 349.245 224.511 349.383L223.43 364.845C223.421 364.983 223.524 365.103 223.662 365.112L224.161 365.147C224.299 365.157 224.418 365.053 224.428 364.915L225.509 349.453C225.519 349.315 225.415 349.196 225.277 349.186Z" fill="#6B6E74"/>
<path d="M223.282 349.046L222.783 349.012C222.645 349.002 222.526 349.106 222.516 349.244L221.435 364.706C221.425 364.844 221.529 364.963 221.667 364.973L222.166 365.007C222.303 365.017 222.423 364.913 222.433 364.776L223.514 349.313C223.523 349.176 223.42 349.056 223.282 349.046Z" fill="#6B6E74"/>
<path d="M259.801 249.335C260.352 249.373 260.83 248.958 260.868 248.407C260.907 247.856 260.491 247.378 259.94 247.34C259.389 247.301 258.912 247.717 258.873 248.268C258.835 248.819 259.25 249.296 259.801 249.335Z" stroke="#6B6E74"/>
<path d="M241.346 248.044C241.897 248.083 242.375 247.668 242.413 247.117C242.452 246.566 242.036 246.088 241.485 246.049C240.934 246.011 240.457 246.426 240.418 246.977C240.38 247.528 240.795 248.006 241.346 248.044Z" stroke="#6B6E74"/>
<path d="M255.196 243.499C255.747 243.538 256.225 243.123 256.264 242.572C256.302 242.021 255.887 241.543 255.336 241.504C254.785 241.466 254.307 241.881 254.269 242.432C254.23 242.983 254.645 243.461 255.196 243.499Z" fill="#DADBDC" stroke="#6B6E74"/>
<path d="M247.216 242.941C247.767 242.98 248.245 242.564 248.283 242.014C248.322 241.463 247.906 240.985 247.355 240.946C246.805 240.908 246.327 241.323 246.288 241.874C246.25 242.425 246.665 242.903 247.216 242.941Z" fill="#DADBDC" stroke="#6B6E74"/>
<path d="M228.156 268.593L229.429 266.436C230.131 265.247 231.222 264.336 232.517 263.857C238.636 261.597 242.349 260.033 243.657 259.165C245.102 258.206 246.01 256.505 246.38 254.062" stroke="#6B6E74" stroke-linecap="round" stroke-linejoin="round"/>
<path d="M269.728 271.5L268.319 268.077C267.848 266.932 267.035 265.962 265.99 265.297C260.569 261.85 257.395 259.732 256.467 258.942C255.451 258.077 254.8 256.822 254.513 255.177" stroke="#6B6E74"/>
<path d="M240.422 261.041C240.853 264.032 241.367 266.267 241.963 267.747C242.56 269.228 243.771 271.271 245.597 273.879" stroke="#6B6E74" stroke-linecap="round" stroke-linejoin="round"/>
<path d="M253.301 272.501C255.177 270.665 256.452 269.132 257.126 267.902C257.8 266.671 258.495 264.609 259.21 261.715" stroke="#6B6E74" stroke-linecap="round" stroke-linejoin="round"/>
<path d="M241.38 264.262C244.253 265.903 246.657 266.823 248.593 267.022C250.529 267.221 253.718 266.875 258.161 265.986" stroke="#6B6E74" stroke-linecap="round" stroke-linejoin="round"/>
<path d="M242.478 248.567C245.43 252.848 248.229 254.976 250.874 254.953C253.519 254.929 256.327 253.193 259.297 249.744" stroke="#6B6E74" stroke-linecap="round" stroke-linejoin="round"/>
<path d="M258.255 226.111C261.389 229.117 263.374 232.776 264.209 237.087C264.706 239.65 263.973 246.13 264.033 252.047C264.06 254.74 264.343 258.767 264.883 264.13" stroke="#6B6E74" stroke-linecap="round" stroke-linejoin="round"/>
<path d="M233.141 263.546C233.971 263.446 234.917 260.62 235.978 255.07C237.57 246.745 236.555 246.592 238.245 239.032C239.935 231.473 241.5 228.967 245.556 226.188C248.26 224.335 251.103 223.798 254.085 224.579" stroke="#6B6E74" stroke-linecap="round" stroke-linejoin="round"/>
<path d="M242.792 237.12C245.616 236.89 247.745 236.467 249.179 235.853C250.613 235.238 252.745 233.834 255.574 231.641C256.134 233.879 256.708 235.495 257.295 236.489C257.883 237.482 258.796 238.382 260.035 239.188L259.871 241.532" stroke="#6B6E74" stroke-linecap="round" stroke-linejoin="round"/>
<path d="M245.614 239.463C246.291 238.936 246.861 238.639 247.325 238.574C247.789 238.508 248.488 238.625 249.422 238.924" stroke="#6B6E74" stroke-linecap="round" stroke-linejoin="round"/>
<path d="M253.828 239.02C254.335 238.811 254.899 238.719 255.521 238.742C256.143 238.766 256.673 239.099 257.109 239.741" stroke="#6B6E74" stroke-linecap="round" stroke-linejoin="round"/>
<path d="M251.213 244.5L251.384 245.822L250.831 246.484" stroke="#6B6E74" stroke-linecap="round" stroke-linejoin="round"/>
<path d="M248.718 249.003C249.65 249.637 250.384 249.972 250.919 250.01C251.454 250.047 252.183 249.814 253.108 249.31" stroke="#6B6E74" stroke-linecap="round" stroke-linejoin="round"/>
<path d="M239.992 246.408L239.01 245.047C238.617 244.503 238.418 243.843 238.445 243.172C238.469 242.563 238.575 242.14 238.763 241.904C239.361 241.153 240.455 241.029 241.206 241.628C241.363 241.753 241.498 241.905 241.603 242.077L242.36 243.306L243.159 238.822" stroke="#6B6E74" stroke-linecap="round" stroke-linejoin="round"/>
<path d="M259.992 244.916C260.728 243.147 261.434 242.286 262.111 242.334C263.126 242.405 264.242 243.477 263.997 245.196C263.833 246.342 262.916 247.4 261.245 248.37" stroke="#6B6E74" stroke-linecap="round" stroke-linejoin="round"/>
<path d="M262.029 244.632L261.396 246.217" stroke="#6B6E74" stroke-linecap="round" stroke-linejoin="round"/>
<path d="M240.195 243.104L240.857 244.781" stroke="#6B6E74" stroke-linecap="round" stroke-linejoin="round"/>
<path d="M255.978 224.941L256.547 225.149" stroke="#6B6E74" stroke-linecap="round" stroke-linejoin="round"/>
<path d="M258.27 185.003C267.662 163.199 276.932 144.765 286.08 129.701C299.802 107.106 296.81 94.628 294.387 90.5187C291.963 86.4094 267.646 113.414 260.156 127.881C255.163 137.526 253.74 152.499 255.887 172.801" stroke="#6B6E74" stroke-linecap="round" stroke-linejoin="round"/>
<path d="M92.3143 171.636C95.8421 161.554 98.0163 152.558 98.8372 144.648C100.068 132.783 102.518 108.199 91.2314 99.5306C79.5833 90.5842 77.4975 115.061 78.507 130.238C79.18 140.356 81.3136 150.266 84.9079 159.966" stroke="#6B6E74" stroke-linecap="round" stroke-linejoin="round"/>
<path d="M367.134 49.8158L362.995 48.9783C357.338 47.8338 351.603 50.5552 348.913 55.6613L347.765 57.8397C345.553 62.0389 342.233 65.5523 338.166 67.9991C332.457 71.4334 327.047 74.7175 321.935 77.8512C311.539 84.2248 304.921 89.79 301.533 91.0423C298.145 92.2946 293.474 91.4829 293.714 88.2827C293.955 85.0826 295.08 84.307 300.273 76.4887C305.466 68.6703 315.191 66.5164 317.019 60.7677C318.847 55.0189 303.717 55.047 296.74 55.8125C289.999 56.5522 285.134 62.6167 285.874 69.3578C286.129 71.6851 287.044 73.8908 288.512 75.715C289.596 77.0626 290.349 78.1607 290.771 79.0092C292.242 81.9678 292.381 85.6958 292.029 88.2827C291.676 90.8697 291.81 94.3866 287.984 92.1832C284.157 89.9798 269.719 80.8525 268.02 76.3012C266.321 71.7499 272.441 49.7761 280.879 40.8885C289.317 32.0009 298.087 29.3213 309.375 25.3136C313.728 23.7679 319.468 22.0962 326.596 20.2985C337.782 17.4772 349.451 17.14 360.781 19.3108L376.038 22.2338" stroke="#6B6E74" stroke-width="2" stroke-linecap="round" stroke-linejoin="round"/>
<path d="M274.331 50.6748C253.017 72.6016 241.641 84.9735 240.204 87.7904C239.062 90.0278 241.318 91.1629 246.973 91.1954C250.076 91.2133 253.042 89.9201 255.14 87.6345L267.736 73.9136" stroke="#6B6E74" stroke-width="2" stroke-linecap="round" stroke-linejoin="round"/>
<path d="M62.0505 8.39189C68.2621 22.3569 71.3679 30.751 71.3679 33.5745C71.3679 37.8096 69.7464 41.6332 69.1908 50.1295C68.8203 55.7938 70.6011 62.8534 74.5329 71.3085L81.7615 87.6488C83.431 94.7433 84.8874 97.7516 86.1306 96.6739C87.318 95.6444 87.7913 92.2658 87.5503 86.5383H87.5503C87.5285 86.0204 87.445 85.507 87.3015 85.009C86.3218 81.6075 85.8319 78.4034 85.8319 75.3968C85.8319 70.5752 85.6449 63.4462 88.9597 63.469C92.2746 63.4919 97.8818 67.6421 100.818 75.7729C103.755 83.9037 97.5698 87.951 95.6883 89.932C93.8068 91.9131 81.4931 102.126 89.245 99.145C94.413 97.1578 100.401 93.2906 107.21 87.5434C102.384 95.2241 100.343 99.4471 101.088 100.212C102.205 101.36 115.135 86.3086 115.494 78.9439C115.853 71.5792 102.077 53.4197 98.6693 39.3194C96.3973 29.9191 94.5254 17.146 93.0536 1" stroke="#6B6E74" stroke-width="2" stroke-linecap="round" stroke-linejoin="round"/>
</svg>
